<?xml version="1.0" encoding="UTF-8" standalone="no"?>
<!DOCTYPE svg PUBLIC "-//W3C//DTD SVG 1.1//EN" "http://www.w3.org/Graphics/SVG/1.1/DTD/svg11.dtd">
<svg xmlns="http://www.w3.org/2000/svg" version="1.1" viewBox="0.00 0.00 1024.00 1024.00">
<g stroke-width="2.00" fill="none" stroke-linecap="butt">
<path stroke="#383a33" vector-effect="non-scaling-stroke" d="
  M 512.37 106.16
  Q 506.55 107.44 500.37 106.88"
/>
<path stroke="#383a33" vector-effect="non-scaling-stroke" d="
  M 546.62 106.18
  Q 558.15 107.68 569.83 107.67"
/>
<path stroke="#383a33" vector-effect="non-scaling-stroke" d="
  M 573.11 107.94
  Q 579.97 109.79 587.32 109.60"
/>
<path stroke="#383a33" vector-effect="non-scaling-stroke" d="
  M 589.19 109.74
  C 592.56 111.41 596.61 111.18 599.17 111.64
  Q 713.94 132.23 802.58 207.70
  Q 802.86 207.94 803.34 207.61"
/>
<path stroke="#383a33" vector-effect="non-scaling-stroke" d="
  M 805.57 209.64
  Q 807.05 212.66 810.10 213.66"
/>
<path stroke="#383a33" vector-effect="non-scaling-stroke" d="
  M 815.26 218.42
  L 838.20 241.38"
/>
<path stroke="#383a33" vector-effect="non-scaling-stroke" d="
  M 843.25 246.95
  Q 845.13 250.38 848.27 252.32"
/>
<path stroke="#383a33" vector-effect="non-scaling-stroke" d="
  M 855.48 261.24
  L 883.90 300.17"
/>
<path stroke="#383a33" vector-effect="non-scaling-stroke" d="
  M 886.59 303.92
  Q 886.43 303.96 886.34 304.06
  A 0.28 0.27 -38.0 0 0 886.29 304.41
  Q 923.98 365.68 939.05 436.09
  C 940.92 444.84 942.51 452.81 943.71 462.39
  Q 944.64 469.72 945.93 477.23"
/>
<path stroke="#383a33" vector-effect="non-scaling-stroke" d="
  M 946.54 483.17
  Q 945.71 486.46 946.90 489.60"
/>
<path stroke="#383a33" vector-effect="non-scaling-stroke" d="
  M 947.32 497.87
  L 947.31 536.89"
/>
<path stroke="#383a33" vector-effect="non-scaling-stroke" d="
  M 946.91 545.96
  Q 945.72 548.73 946.36 552.14"
/>
<path stroke="#383a33" vector-effect="non-scaling-stroke" d="
  M 946.02 557.58
  Q 944.34 559.62 945.41 562.20"
/>
<path stroke="#383a33" vector-effect="non-scaling-stroke" d="
  M 945.13 563.69
  Q 941.26 591.04 935.00 617.75
  Q 934.85 618.40 935.35 618.61"
/>
<path stroke="#383a33" vector-effect="non-scaling-stroke" d="
  M 935.09 620.06
  Q 934.46 619.90 934.19 620.94
  Q 915.27 693.86 870.57 756.06
  Q 869.71 757.26 870.01 757.94"
/>
<path stroke="#383a33" vector-effect="non-scaling-stroke" d="
  M 866.18 762.60
  Q 860.91 768.10 856.89 774.51"
/>
<path stroke="#383a33" vector-effect="non-scaling-stroke" d="
  M 855.09 776.77
  Q 852.83 778.09 852.59 779.72"
/>
<path stroke="#383a33" vector-effect="non-scaling-stroke" d="
  M 851.06 781.72
  Q 848.79 782.89 847.98 785.29"
/>
<path stroke="#383a33" vector-effect="non-scaling-stroke" d="
  M 844.14 789.94
  Q 840.73 791.52 839.68 794.81"
/>
<path stroke="#383a33" vector-effect="non-scaling-stroke" d="
  M 836.06 798.65
  L 822.72 812.01"
/>
<path stroke="#383a33" vector-effect="non-scaling-stroke" d="
  M 818.13 816.10
  L 801.49 830.96"
/>
<path stroke="#383a33" vector-effect="non-scaling-stroke" d="
  M 801.49 830.96
  Q 798.67 832.26 796.44 835.04"
/>
<path stroke="#383a33" vector-effect="non-scaling-stroke" d="
  M 796.27 835.12
  L 787.62 842.03"
/>
<path stroke="#383a33" vector-effect="non-scaling-stroke" d="
  M 785.54 843.83
  Q 785.05 843.62 784.81 843.80
  Q 709.64 900.99 620.32 921.59
  Q 596.89 926.99 566.64 929.81
  C 554.62 930.93 541.76 930.88 529.25 931.15
  Q 507.42 931.61 485.75 928.91"
/>
<path stroke="#383a33" vector-effect="non-scaling-stroke" d="
  M 485.75 928.91
  C 406.40 920.00 329.60 887.81 267.70 838.55
  Q 267.46 838.36 266.95 838.59"
/>
<path stroke="#383a33" vector-effect="non-scaling-stroke" d="
  M 265.70 837.61
  Q 265.83 837.54 265.90 837.44
  Q 265.95 837.37 265.88 837.32
  L 246.69 820.84
  Q 246.57 820.74 246.42 820.77
  Q 246.28 820.80 246.17 820.86"
/>
<path stroke="#383a33" vector-effect="non-scaling-stroke" d="
  M 244.52 819.33
  Q 244.83 819.10 243.97 818.28
  Q 231.75 806.56 219.82 794.32"
/>
<path stroke="#383a33" vector-effect="non-scaling-stroke" d="
  M 216.03 790.35
  Q 213.81 786.92 211.13 783.86
  C 155.15 719.86 124.28 640.92 114.04 558.16"
/>
<path stroke="#383a33" vector-effect="non-scaling-stroke" d="
  M 113.62 555.91
  Q 114.37 551.51 112.88 547.62"
/>
<path stroke="#383a33" vector-effect="non-scaling-stroke" d="
  M 112.63 545.05
  Q 113.80 536.88 112.25 529.31"
/>
<path stroke="#383a33" vector-effect="non-scaling-stroke" d="
  M 112.12 507.03
  Q 113.69 498.93 112.60 490.58"
/>
<path stroke="#383a33" vector-effect="non-scaling-stroke" d="
  M 113.23 486.93
  Q 122.72 375.06 186.88 284.00
  Q 187.02 283.79 186.88 283.58
  Q 186.81 283.48 186.73 283.37"
/>
<path stroke="#383a33" vector-effect="non-scaling-stroke" d="
  M 187.99 281.99
  Q 188.38 282.07 188.68 281.68
  Q 205.10 259.61 223.51 239.02"
/>
<path stroke="#383a33" vector-effect="non-scaling-stroke" d="
  M 246.22 216.44
  Q 249.70 214.39 252.37 210.91"
/>
<path stroke="#383a33" vector-effect="non-scaling-stroke" d="
  M 253.91 209.42
  C 255.22 209.54 255.95 208.03 256.64 207.44
  C 314.40 158.58 383.47 126.07 457.97 112.49
  A 0.32 0.32 0.0 0 0 458.22 112.12
  Q 458.21 112.04 457.74 111.85"
/>
<path stroke="#383a33" vector-effect="non-scaling-stroke" d="
  M 460.91 111.68
  L 470.09 110.35
  Q 471.28 110.18 470.22 109.99
  Q 470.04 109.95 469.72 110.01"
/>
<path stroke="#383a33" vector-effect="non-scaling-stroke" d="
  M 473.21 109.59
  Q 474.62 109.91 475.51 109.79
  Q 485.80 108.48 496.37 107.21"
/>
<path stroke="#60745c" vector-effect="non-scaling-stroke" d="
  M 485.75 928.91
  Q 485.14 928.96 485.24 929.56"
/>
<path stroke="#878084" vector-effect="non-scaling-stroke" d="
  M 182.15 697.54
  C 229.12 786.48 311.41 852.79 405.75 885.87
  Q 415.27 889.21 424.83 891.86
  C 521.57 918.72 622.75 908.35 711.54 861.04
  C 764.03 833.07 811.45 794.10 846.90 746.16
  Q 924.86 640.73 923.03 508.80
  C 922.91 500.64 922.56 491.71 921.74 483.93
  Q 906.84 342.75 805.12 244.40
  C 740.22 181.65 659.31 142.48 569.20 132.48
  C 460.05 120.37 345.31 160.13 264.60 233.99
  C 212.06 282.07 171.70 342.69 151.89 411.47
  C 124.19 507.66 135.62 609.43 182.15 697.54"
/>
<path stroke="#878084" vector-effect="non-scaling-stroke" d="
  M 239.65 742.62
  C 278.13 789.36 324.47 825.50 378.99 850.81
  C 472.78 894.36 587.71 894.87 681.48 850.72
  Q 740.34 823.02 788.30 778.05
  C 814.01 753.95 835.49 725.49 853.24 695.13
  C 909.82 598.37 914.29 477.85 870.65 375.51
  C 840.30 304.31 782.93 244.28 716.92 205.09
  C 533.56 96.23 304.64 166.55 202.00 348.98
  C 174.30 398.20 160.09 458.18 159.96 513.94
  C 159.77 597.52 186.34 677.88 239.65 742.62"
/>
<path stroke="#87716f" vector-effect="non-scaling-stroke" d="
  M 184.28 500.86
  Q 183.91 503.43 183.86 506.26
  Q 183.38 534.54 186.46 562.72
  Q 186.52 563.27 186.97 562.95
  C 215.49 543.15 244.79 524.45 273.22 504.59
  A 1.64 1.64 0.0 0 0 273.76 502.53
  C 260.88 475.79 260.55 444.14 268.16 415.93
  Q 269.15 412.27 272.80 399.76"
/>
<path stroke="#873427" vector-effect="non-scaling-stroke" d="
  M 272.80 399.76
  Q 281.05 375.08 295.80 351.06
  C 308.17 330.93 325.07 312.61 346.27 302.15
  Q 346.73 301.92 346.91 301.44
  C 364.87 251.45 404.09 209.04 459.25 202.76
  C 485.52 199.77 513.00 206.52 532.55 224.62
  A 1.67 1.66 -40.1 0 0 534.59 224.79
  C 565.43 204.67 612.05 196.17 642.22 222.79
  C 657.12 235.93 663.77 251.07 668.04 270.18
  Q 668.15 270.69 668.64 270.84
  C 688.28 277.08 706.76 289.12 718.34 306.31
  C 723.59 314.11 729.97 321.95 726.39 330.83
  Q 726.21 331.30 726.46 331.73
  C 732.10 341.33 729.12 351.65 721.73 359.20
  A 1.05 1.03 -26.2 0 0 721.43 360.06
  C 722.54 370.72 704.50 383.70 696.75 390.72"
/>
<path stroke="#87716f" vector-effect="non-scaling-stroke" d="
  M 696.75 390.72
  L 683.11 401.27
  A 0.43 0.43 0.0 0 0 683.07 401.92
  C 698.14 416.54 708.01 433.93 710.45 455.11
  A 1.71 1.70 -77.5 0 0 711.23 456.34
  Q 717.60 460.34 718.85 467.23
  C 721.20 480.27 708.71 493.45 697.43 498.03
  Q 696.95 498.22 697.10 498.71
  Q 701.89 514.43 688.89 524.22
  C 681.58 529.72 673.34 531.24 664.68 533.28
  A 1.55 1.46 -74.9 0 0 663.87 533.78
  C 652.09 547.89 634.32 557.43 617.50 564.02
  A 0.60 0.59 -31.4 0 0 617.27 564.97
  L 644.61 595.97
  Q 644.88 596.27 645.24 596.09
  Q 683.51 576.43 724.98 564.95
  C 734.13 562.41 747.21 563.15 748.52 574.95
  A 0.67 0.67 0.0 0 0 749.11 575.54
  Q 754.53 576.15 760.67 578.35
  Q 777.34 584.31 787.71 588.56
  Q 795.74 591.86 795.26 600.48
  Q 794.75 609.67 792.36 639.82
  Q 792.17 642.28 792.27 643.95
  Q 792.30 644.51 792.81 644.72
  C 813.38 653.35 823.59 670.74 827.35 692.06
  A 0.25 0.25 0.0 0 0 827.81 692.14
  Q 848.38 657.32 860.94 618.75"
/>
<path stroke="#873427" vector-effect="non-scaling-stroke" d="
  M 860.94 618.75
  C 890.72 518.95 876.55 411.46 815.10 326.42
  C 752.72 240.07 656.63 185.10 549.99 178.22
  C 502.86 175.18 450.92 182.92 406.93 200.31
  Q 297.45 243.60 233.62 342.36
  C 203.19 389.46 186.68 444.56 184.28 500.86"
/>
<path stroke="#ffa58c" vector-effect="non-scaling-stroke" d="
  M 860.94 618.75
  Q 860.67 618.54 860.21 618.47
  Q 859.74 618.40 859.64 617.92
  Q 854.07 591.43 845.43 569.82
  C 815.47 494.94 764.63 435.02 696.75 390.72"
/>
<path stroke="#ffa58c" vector-effect="non-scaling-stroke" d="
  M 272.80 399.76
  C 241.85 424.48 214.94 452.83 193.41 486.16
  Q 189.20 492.69 185.74 499.64
  A 1.04 1.04 0.0 0 1 185.11 500.17
  Q 184.52 500.36 184.28 500.86"
/>
<path stroke="#34512d" vector-effect="non-scaling-stroke" d="
  M 501.41 420.41
  A 2.05 2.05 0.0 0 1 501.17 416.44
  C 519.52 410.69 535.64 404.09 551.19 392.53
  Q 552.03 391.90 551.00 392.07
  C 527.96 395.96 504.75 396.93 481.75 392.46
  C 462.87 388.79 449.23 381.24 436.61 366.67
  Q 434.05 363.72 433.59 360.79
  A 0.42 0.42 0.0 0 1 434.29 360.42
  C 450.98 375.86 470.10 384.15 492.29 386.84
  C 517.25 389.87 541.96 387.76 565.89 379.80
  C 570.68 378.20 585.17 372.23 580.12 364.84
  Q 579.82 364.40 579.35 364.64
  Q 538.97 384.95 494.60 379.33
  C 472.95 376.59 457.40 367.13 440.94 353.56
  C 438.73 351.74 435.59 349.82 432.38 349.28
  C 425.26 348.10 409.35 347.77 405.83 340.11
  C 402.88 333.69 408.75 329.30 414.51 328.28
  C 422.44 326.88 431.62 327.66 439.43 324.17
  C 451.13 318.94 464.30 310.32 473.27 306.14
  Q 510.95 288.57 552.76 298.54
  Q 562.55 300.88 571.37 303.55
  A 1.04 1.04 0.0 0 0 572.27 301.70
  C 559.44 292.65 547.22 289.93 531.08 288.45
  Q 496.48 285.28 465.51 302.33
  Q 450.56 310.55 445.69 312.95
  C 442.54 314.50 428.47 319.81 426.08 316.42
  A 0.57 0.57 0.0 0 1 426.33 315.57
  C 443.14 308.66 458.05 297.25 474.37 290.54
  C 497.39 281.06 524.67 278.47 549.01 285.21
  Q 549.55 285.36 549.16 284.96
  Q 547.07 282.82 544.57 281.17
  C 521.14 265.71 495.80 257.72 467.50 261.80
  C 449.66 264.38 436.30 271.60 421.03 278.09
  A 0.85 0.84 -33.2 0 1 420.09 277.90
  C 416.51 274.24 428.47 266.97 431.03 265.57
  C 466.70 246.03 509.72 248.95 543.60 270.19
  A 0.31 0.30 -83.4 0 0 544.05 269.83
  C 537.86 251.68 525.81 235.30 508.53 226.50
  C 481.23 212.59 447.22 215.68 421.25 231.09
  C 387.88 250.88 365.21 287.05 355.68 324.25
  C 352.25 337.66 351.61 349.00 345.29 358.84
  A 0.71 0.70 -38.9 0 1 344.04 358.71
  C 339.68 347.11 341.08 333.67 344.17 322.01
  A 0.46 0.46 0.0 0 0 343.46 321.52
  C 312.28 343.34 291.94 386.08 283.45 422.19
  C 276.89 450.11 276.97 485.50 299.06 507.19
  Q 313.65 521.52 332.41 529.72
  C 365.96 544.39 402.33 553.61 438.57 558.33
  C 471.22 562.58 504.34 564.99 535.31 563.86
  C 568.60 562.65 608.08 556.17 637.85 537.55
  Q 640.40 535.95 642.43 534.00
  A 0.51 0.50 -67.6 0 0 642.07 533.13
  Q 572.13 535.39 503.36 521.72
  Q 484.92 518.05 466.52 514.19
  C 456.57 512.10 446.91 510.66 438.07 511.31
  C 423.07 512.41 406.14 513.49 397.25 498.89
  C 391.29 489.12 392.45 476.98 398.91 467.64
  C 414.30 445.36 441.42 443.94 465.51 449.99
  Q 488.53 455.78 511.52 461.67
  Q 562.93 474.84 615.99 475.42
  C 642.58 475.72 670.84 472.20 695.05 460.56
  Q 696.69 459.77 696.48 458.27
  Q 691.96 426.41 665.81 407.75
  C 664.87 407.08 663.96 407.12 662.92 407.40
  Q 642.53 412.86 621.43 410.62
  Q 620.78 410.56 621.25 411.01
  L 626.42 415.99
  A 1.97 1.97 0.0 0 1 625.86 419.21
  Q 624.29 419.93 622.17 418.91
  Q 606.04 411.13 591.33 400.92
  C 590.11 400.07 589.09 398.60 589.81 397.21
  A 1.34 1.33 -67.9 0 1 591.37 396.55
  C 599.24 398.82 607.71 401.50 615.37 402.55
  C 643.62 406.44 670.79 399.47 692.61 380.87
  C 698.76 375.62 707.11 369.41 711.59 362.73
  A 0.40 0.40 0.0 0 0 711.08 362.14
  C 672.28 380.38 630.70 380.85 589.86 369.72
  A 0.63 0.62 17.9 0 0 589.11 370.10
  C 588.10 372.94 587.24 375.51 585.19 377.69
  C 579.41 383.81 572.03 386.24 564.67 389.26
  Q 564.20 389.45 563.92 389.86
  Q 559.98 395.54 554.41 399.64
  Q 532.53 415.77 505.68 420.35
  Q 503.26 420.76 501.41 420.41"
/>
<path stroke="#34512d" vector-effect="non-scaling-stroke" d="
  M 558.88 271.30
  C 589.69 264.02 622.15 262.95 653.06 270.24
  Q 653.46 270.34 653.36 269.94
  C 650.24 257.77 644.44 245.28 635.42 236.69
  C 610.20 212.67 569.83 221.09 542.90 237.33
  A 0.67 0.67 0.0 0 0 542.71 238.30
  Q 553.84 253.03 558.30 270.95
  A 0.49 0.48 -13.3 0 0 558.88 271.30"
/>
<path stroke="#34512d" vector-effect="non-scaling-stroke" d="
  M 565.81 286.01
  C 571.42 291.99 582.47 294.36 581.74 304.39
  A 0.85 0.84 -75.0 0 0 582.21 305.21
  L 588.55 308.43
  A 3.49 3.48 49.2 0 0 591.23 308.63
  Q 600.17 305.72 609.48 302.71
  Q 655.76 287.77 700.38 303.21
  Q 703.44 304.26 700.89 302.28
  Q 690.72 294.34 678.97 291.05
  C 668.52 288.13 652.86 288.41 641.56 288.83
  C 625.67 289.41 611.54 293.93 595.55 300.49
  Q 595.20 300.63 595.23 300.26
  Q 595.25 299.88 595.54 299.71
  Q 632.07 278.55 673.26 287.68
  Q 676.25 288.34 673.55 286.91
  Q 654.35 276.69 630.83 274.48
  Q 595.42 271.14 560.75 279.11
  Q 560.23 279.23 560.55 279.66
  Q 563.03 283.05 565.81 286.01"
/>
<path stroke="#34512d" vector-effect="non-scaling-stroke" d="
  M 411.07 334.74
  C 412.75 339.78 424.07 340.40 428.02 340.55
  C 447.47 341.26 463.67 324.77 481.71 317.54
  C 512.06 305.37 541.83 307.20 572.99 317.23
  Q 573.67 317.45 574.20 316.98
  L 577.75 313.79
  Q 578.34 313.27 577.60 312.99
  Q 557.26 305.64 535.76 303.27
  Q 498.32 299.13 466.17 318.18
  C 453.31 325.80 439.17 334.36 424.65 330.76
  C 418.92 329.34 414.84 329.16 411.23 333.80
  A 1.02 1.01 -35.6 0 0 411.07 334.74"
/>
<path stroke="#34512d" vector-effect="non-scaling-stroke" d="
  M 582.26 320.22
  Q 588.58 322.10 592.27 327.51
  Q 592.56 327.94 592.98 327.64
  C 613.46 313.10 641.98 307.66 666.63 309.19
  C 683.12 310.20 699.50 314.74 714.65 321.42
  Q 716.08 322.05 715.98 320.49
  Q 715.88 319.03 713.99 317.77
  C 688.90 301.04 650.18 300.26 621.97 306.95
  C 610.75 309.61 596.14 315.03 583.25 319.00
  Q 582.47 319.24 582.11 319.79
  A 0.29 0.28 -64.7 0 0 582.26 320.22"
/>
<path stroke="#878084" vector-effect="non-scaling-stroke" d="
  M 445.17 345.88
  Q 461.54 362.48 483.74 369.46
  A 0.44 0.44 0.0 0 0 484.24 368.80
  C 465.86 341.82 494.21 310.70 522.08 322.57
  C 542.61 331.32 546.36 354.29 532.23 370.79
  A 0.26 0.26 0.0 0 0 532.47 371.22
  Q 552.97 368.09 571.87 359.74
  C 576.54 357.68 579.67 356.32 582.11 352.59
  C 586.58 345.74 592.09 332.66 580.93 328.31
  C 548.63 315.71 516.20 310.44 484.16 324.65
  C 475.56 328.46 464.92 335.12 455.41 340.40
  C 452.25 342.16 448.59 343.57 445.30 345.13
  Q 444.71 345.41 445.17 345.88"
/>
<path stroke="#878084" vector-effect="non-scaling-stroke" d="
  M 587.62 359.05
  C 598.13 365.37 614.92 367.25 626.99 368.02
  Q 627.86 368.08 627.34 367.38
  C 617.07 353.61 619.77 332.48 634.53 323.66
  C 662.39 307.03 695.38 337.24 675.19 365.15
  A 0.41 0.41 0.0 0 0 675.62 365.79
  C 684.44 363.53 692.47 361.04 701.43 357.54
  C 706.79 355.44 712.35 352.70 716.66 353.41
  Q 717.14 353.49 717.48 353.14
  C 723.78 346.67 725.17 335.32 716.07 330.41
  Q 708.46 326.29 693.53 321.66
  C 660.79 311.50 622.91 315.37 594.74 335.55
  Q 594.30 335.87 594.27 336.42
  Q 593.63 348.07 587.34 357.85
  Q 586.87 358.59 587.62 359.05"
/>
<path stroke="#878084" vector-effect="non-scaling-stroke" d="
  M 647.11 337.71
  A 6.40 6.40 0.0 0 0 640.71 331.31
  A 6.40 6.40 0.0 0 0 634.31 337.71
  A 6.40 6.40 0.0 0 0 640.71 344.11
  A 6.40 6.40 0.0 0 0 647.11 337.71"
/>
<path stroke="#878084" vector-effect="non-scaling-stroke" d="
  M 502.1992 345.9231
  A 6.96 6.33 53.2 0 0 503.0986 336.5582
  A 6.96 6.33 53.2 0 0 493.8608 334.7769
  A 6.96 6.33 53.2 0 0 492.9614 344.1418
  A 6.96 6.33 53.2 0 0 502.1992 345.9231"
/>
<path stroke="#878084" vector-effect="non-scaling-stroke" d="
  M 659.3883 356.5091
  A 4.54 4.18 82.3 0 0 662.9223 351.4499
  A 4.54 4.18 82.3 0 0 658.1717 347.5109
  A 4.54 4.18 82.3 0 0 654.6377 352.5701
  A 4.54 4.18 82.3 0 0 659.3883 356.5091"
/>
<path stroke="#878084" vector-effect="non-scaling-stroke" d="
  M 522.08 354.71
  A 4.64 4.64 0.0 0 0 517.44 350.07
  A 4.64 4.64 0.0 0 0 512.80 354.71
  A 4.64 4.64 0.0 0 0 517.44 359.35
  A 4.64 4.64 0.0 0 0 522.08 354.71"
/>
<path stroke="#74362b" vector-effect="non-scaling-stroke" d="
  M 426.10 481.74
  C 438.10 469.07 459.12 475.48 474.63 479.05
  C 533.37 492.59 592.11 502.34 652.29 496.77
  C 662.18 495.86 672.74 493.87 682.93 492.10
  Q 691.66 490.59 695.65 488.48
  C 700.50 485.92 711.92 476.72 708.59 470.00
  C 707.01 466.81 703.95 466.79 700.80 468.00
  C 692.23 471.29 683.42 474.77 674.78 476.95
  C 624.02 489.72 566.44 484.54 516.00 471.76
  Q 499.62 467.62 466.32 458.65
  C 447.73 453.64 421.15 451.63 408.55 470.17
  C 401.44 480.63 400.99 494.03 413.24 500.67
  C 418.00 503.25 423.93 503.30 429.31 502.87
  C 445.61 501.54 459.08 503.38 476.27 507.11
  C 511.85 514.83 539.39 519.71 574.34 522.80
  C 604.31 525.45 634.73 525.08 664.68 522.45
  Q 672.21 521.79 678.68 518.30
  C 684.78 515.00 690.83 506.12 682.85 500.90
  A 1.15 1.11 -33.0 0 0 682.01 500.74
  C 608.02 515.79 532.49 500.86 462.68 484.86
  Q 447.58 481.40 431.50 483.25
  Q 428.87 483.55 426.24 482.43
  Q 425.68 482.19 426.10 481.74"
/>
<path stroke="#878084" vector-effect="non-scaling-stroke" d="
  M 314.38 650.67
  L 354.24 653.46
  Q 354.72 653.49 354.73 653.01
  Q 354.90 629.29 354.86 605.56
  C 354.85 597.04 360.07 593.72 366.44 589.67
  A 0.53 0.52 54.8 0 0 366.57 588.90
  Q 354.08 572.85 343.60 555.42
  C 343.24 554.81 342.59 554.06 341.92 553.76
  C 323.78 545.86 307.16 536.77 292.70 523.04
  Q 291.97 522.34 292.13 523.34
  L 313.02 649.43
  A 1.48 1.48 0.0 0 0 314.38 650.67"
/>
<path stroke="#878084" vector-effect="non-scaling-stroke" d="
  M 286.95 719.15
  A 1.00 1.00 0.0 0 1 288.92 719.14
  Q 293.23 742.31 294.86 765.81
  A 1.43 1.40 20.2 0 0 295.30 766.73
  L 301.33 772.40
  A 0.41 0.41 0.0 0 0 302.00 772.21
  C 310.88 742.19 323.09 714.17 354.33 701.82
  Q 354.75 701.65 354.75 701.21
  L 354.75 672.25
  Q 354.75 671.64 354.14 671.58
  Q 330.51 669.57 306.88 667.71
  C 302.30 667.35 298.57 666.24 297.75 661.50
  Q 286.40 595.51 276.81 529.28
  Q 276.66 528.26 275.80 528.84
  Q 234.49 556.46 192.79 584.54
  C 189.90 586.48 191.19 587.59 191.76 590.10
  Q 209.50 669.01 261.49 730.78
  Q 271.41 742.58 282.50 754.77
  A 0.43 0.42 -65.5 0 0 283.24 754.49
  Q 283.79 736.68 286.95 719.15"
/>
<path stroke="#383a33" vector-effect="non-scaling-stroke" d="
  M 408.34 572.34
  Q 388.44 567.99 369.03 561.56
  Q 368.29 561.31 368.71 561.97
  C 374.02 570.41 380.88 578.10 386.93 586.02
  Q 387.26 586.45 387.74 586.20
  Q 397.81 580.88 408.73 577.58
  A 1.40 1.40 0.0 0 0 409.51 576.99
  Q 410.65 575.19 410.20 573.04
  Q 410.10 572.59 409.64 572.55
  Q 408.94 572.47 408.34 572.34"
/>
<path stroke="#6a6471" vector-effect="non-scaling-stroke" d="
  M 572.75 611.74
  Q 587.87 619.73 600.98 630.73
  Q 601.43 631.11 601.83 630.68
  L 612.87 618.86
  A 0.51 0.51 0.0 0 0 612.68 618.03
  Q 607.57 616.18 602.66 613.80
  C 599.69 612.37 599.66 609.06 603.32 608.65
  Q 612.87 607.57 622.33 609.31
  A 0.92 0.86 -52.3 0 0 622.93 609.21
  L 627.34 606.76
  A 0.57 0.56 -29.4 0 0 627.56 605.98
  Q 626.12 603.53 623.75 600.49
  Q 608.11 580.40 600.37 570.68
  Q 600.11 570.35 599.70 570.46
  L 585.54 574.39
  A 1.10 1.09 -89.5 0 0 584.77 575.15
  Q 579.34 593.31 572.46 610.98
  A 0.62 0.61 24.7 0 0 572.75 611.74"
/>
<path stroke="#878084" vector-effect="non-scaling-stroke" d="
  M 588.72 636.16
  Q 583.67 631.51 576.96 627.80
  C 532.06 602.95 479.12 587.30 430.58 578.60
  C 426.94 577.95 425.12 579.61 423.84 582.73
  Q 423.57 583.39 424.27 583.54
  Q 450.68 589.58 476.85 596.82
  Q 488.52 600.05 495.20 603.26
  Q 497.13 604.19 495.85 606.14
  Q 495.61 606.51 495.16 606.50
  C 493.96 606.48 492.61 606.58 491.45 606.32
  Q 455.17 598.10 418.70 590.73
  Q 416.80 590.35 414.90 589.75
  A 1.03 1.02 -51.4 0 0 414.06 589.85
  Q 409.54 592.56 404.45 593.89
  Q 403.70 594.08 404.45 594.26
  Q 484.93 613.45 564.20 637.16
  Q 575.76 640.61 587.08 644.36
  A 0.27 0.26 -13.9 0 0 587.35 643.92
  C 585.21 641.92 579.87 638.90 582.45 635.50
  A 0.84 0.83 28.4 0 1 583.40 635.22
  Q 585.74 636.08 587.82 637.42
  Q 595.38 642.28 588.72 636.16"
/>
<path stroke="#383a33" vector-effect="non-scaling-stroke" d="
  M 531.60 593.41
  Q 544.25 597.22 555.86 603.49
  Q 556.50 603.84 556.78 603.17
  L 566.56 579.44
  Q 566.89 578.63 566.05 578.87
  Q 548.13 584.05 531.52 592.53
  A 0.48 0.48 0.0 0 0 531.60 593.41"
/>
<path stroke="#5d2223" vector-effect="non-scaling-stroke" d="
  M 495.54 581.09
  L 517.78 588.27
  A 0.72 0.69 40.3 0 0 518.28 588.24
  L 532.62 581.81
  A 0.29 0.29 0.0 0 0 532.51 581.26
  C 530.24 581.22 527.33 581.63 525.67 581.59
  Q 510.74 581.24 495.60 580.79
  Q 494.49 580.75 495.54 581.09"
/>
<path stroke="#878084" vector-effect="non-scaling-stroke" d="
  M 734.19 582.43
  C 728.79 582.71 723.41 579.59 718.50 581.18
  C 688.88 590.72 658.21 601.99 631.93 618.91
  C 623.20 624.53 614.64 631.54 609.83 640.31
  A 0.37 0.36 84.9 0 0 610.38 640.77
  Q 625.69 628.34 643.44 619.94
  C 670.62 607.08 703.45 594.98 733.88 583.44
  Q 734.09 583.36 734.22 583.20
  Q 734.38 583.00 734.45 582.85
  A 0.28 0.28 0.0 0 0 734.19 582.43"
/>
<path stroke="#878084" vector-effect="non-scaling-stroke" d="
  M 756.25 593.57
  Q 750.19 592.26 744.46 589.81
  A 1.31 1.31 0.0 0 0 743.56 589.76
  C 724.14 595.55 705.01 602.91 686.10 610.17
  Q 663.45 618.87 641.66 629.51
  C 633.88 633.31 623.48 638.77 618.89 645.75
  Q 618.56 646.26 619.13 646.04
  L 756.32 594.55
  Q 757.94 593.94 756.25 593.57"
/>
<path stroke="#74362b" vector-effect="non-scaling-stroke" d="
  M 378.55 709.99
  Q 379.43 710.09 380.28 709.83
  Q 399.77 703.90 419.91 700.64
  Q 420.42 700.56 420.46 700.05
  Q 421.05 693.64 426.01 688.01
  Q 434.72 678.12 443.47 668.30
  Q 443.72 668.01 443.49 667.71
  Q 439.57 662.62 433.82 665.09
  Q 433.33 665.29 432.81 665.21
  C 419.37 663.16 422.02 642.55 435.85 644.94
  Q 441.18 645.86 443.06 651.84
  Q 443.20 652.31 443.63 652.58
  L 451.70 657.64
  Q 452.07 657.88 452.34 657.53
  Q 455.33 653.58 457.73 649.24
  C 460.98 643.36 468.99 643.70 472.75 648.74
  C 477.77 655.48 471.92 667.76 462.60 664.67
  A 0.49 0.49 0.0 0 0 462.18 665.54
  Q 475.63 674.35 488.19 683.81
  Q 494.06 688.22 497.51 692.91
  Q 497.85 693.37 498.41 693.35
  L 503.31 693.20
  A 0.73 0.71 12.3 0 0 503.91 692.83
  Q 507.45 686.38 514.23 688.27
  C 525.54 691.43 523.21 708.06 511.07 708.20
  C 507.63 708.24 503.08 703.72 501.09 704.66
  A 0.41 0.41 0.0 0 0 500.98 705.32
  C 511.06 715.16 517.02 726.67 508.38 739.86
  Q 506.79 742.29 504.98 744.84
  Q 504.66 745.31 505.19 745.51
  Q 510.78 747.71 513.78 749.21
  C 525.28 754.99 535.24 767.24 533.78 780.51
  C 532.83 789.16 528.63 793.91 522.52 799.73
  Q 522.14 800.10 522.58 800.40
  C 535.97 809.54 546.37 826.31 535.55 841.53
  C 528.98 850.76 516.02 855.97 504.72 858.36
  A 0.29 0.29 0.0 0 0 504.76 858.94
  Q 535.18 861.08 565.53 857.94
  A 0.62 0.62 0.0 0 0 566.08 857.36
  C 569.68 795.82 572.71 734.26 575.71 672.69
  Q 575.88 669.35 575.68 666.01"
/>
<path stroke="#878084" vector-effect="non-scaling-stroke" d="
  M 575.68 666.01
  L 576.49 656.91
  Q 576.53 656.40 576.04 656.26
  C 512.57 637.56 456.11 622.81 385.53 604.13
  C 382.30 603.27 374.06 600.66 370.47 601.96
  A 0.75 0.74 -10.1 0 0 369.98 602.66
  L 370.60 712.73
  Q 370.61 713.21 371.04 713.00
  Q 374.12 711.50 377.51 710.80
  Q 378.19 710.66 378.55 709.99"
/>
<path stroke="#ecb6a6" vector-effect="non-scaling-stroke" d="
  M 575.68 666.01
  C 513.32 649.61 450.71 632.30 388.36 617.72
  Q 383.90 616.67 380.00 616.78
  Q 378.91 616.81 378.91 617.90
  L 378.55 709.99"
/>
<path stroke="#5d2223" vector-effect="non-scaling-stroke" d="
  M 637.96 665.43
  L 626.97 845.36
  A 0.58 0.58 0.0 0 0 627.73 845.95
  Q 672.83 831.44 712.84 805.76
  C 715.30 804.18 719.11 802.10 721.98 799.79
  Q 722.72 799.19 721.77 799.28
  C 703.36 801.07 669.79 803.31 660.03 782.21
  C 655.46 772.34 658.54 761.31 666.38 753.93
  A 1.32 1.31 -46.5 0 0 666.33 751.97
  C 649.95 738.16 652.08 713.13 668.59 700.58
  Q 670.27 699.31 675.86 695.66
  Q 676.32 695.35 676.02 694.89
  C 663.63 675.21 676.00 651.94 696.46 644.93
  Q 703.55 642.50 706.01 642.00
  C 730.38 637.04 753.34 635.28 777.39 639.51
  Q 777.94 639.61 777.98 639.04
  L 779.82 613.76"
/>
<path stroke="#878084" vector-effect="non-scaling-stroke" d="
  M 779.82 613.76
  Q 781.27 608.51 780.91 602.99
  Q 780.87 602.36 780.25 602.49
  Q 777.80 603.02 773.94 604.44
  C 718.88 624.67 673.88 640.59 637.77 655.38
  Q 637.28 655.59 637.31 656.12
  L 637.96 665.43"
/>
<path stroke="#d5a19e" vector-effect="non-scaling-stroke" d="
  M 779.82 613.76
  Q 775.33 614.71 769.94 616.69
  Q 692.50 644.99 637.96 665.43"
/>
<path stroke="#34512d" vector-effect="non-scaling-stroke" d="
  M 690.94 683.31
  Q 694.39 686.15 698.26 685.34
  Q 716.33 681.57 734.74 680.73
  C 740.47 680.47 775.10 680.76 773.70 690.73
  A 1.51 1.46 -21.0 0 1 773.32 691.54
  C 769.01 696.27 759.30 697.81 753.20 698.89
  Q 726.60 703.56 700.02 708.33
  C 689.07 710.30 671.45 712.60 671.20 725.59
  C 671.07 732.16 675.36 736.21 682.00 734.77
  Q 708.96 728.93 734.92 727.18
  C 741.85 726.71 766.30 725.34 771.16 730.05
  C 784.58 743.06 692.23 759.90 686.61 761.17
  C 683.75 761.81 679.29 763.22 677.66 764.87
  C 670.53 772.10 676.68 780.86 685.51 779.80
  Q 705.69 777.38 734.82 771.84
  C 748.74 769.19 764.42 767.36 774.24 758.24
  Q 797.56 736.60 814.14 711.52
  C 815.55 709.40 817.15 707.76 816.15 705.09
  C 812.49 695.31 808.71 682.25 803.65 674.43
  C 793.47 658.73 767.59 653.25 749.69 654.12
  Q 726.54 655.25 704.07 660.81
  Q 697.08 662.53 691.86 667.54
  C 687.43 671.78 685.46 678.81 690.94 683.31"
/>
<path stroke="#878084" vector-effect="non-scaling-stroke" d="
  M 588.99 660.71
  Q 588.44 660.26 588.23 660.94
  C 582.31 680.05 610.63 677.93 619.84 675.16
  C 625.78 673.38 626.40 666.85 625.49 661.64
  Q 625.38 660.97 624.83 661.36
  C 615.82 667.72 597.97 668.08 588.99 660.71"
/>
<path stroke="#74362b" vector-effect="non-scaling-stroke" d="
  M 434.87 698.42
  C 450.20 696.72 465.36 695.22 480.79 695.55
  A 0.31 0.31 0.0 0 0 480.98 694.99
  L 454.84 675.36
  A 0.49 0.48 38.5 0 0 454.19 675.43
  L 434.48 697.67
  A 0.45 0.45 0.0 0 0 434.87 698.42"
/>
<path stroke="#5d2223" vector-effect="non-scaling-stroke" d="
  M 603.88 718.25
  L 621.03 717.18
  A 1.51 1.50 -0.0 0 0 622.45 715.77
  L 624.38 685.83
  Q 624.43 685.18 623.80 685.37
  Q 614.38 688.28 604.98 688.02"
/>
<path stroke="#74362b" vector-effect="non-scaling-stroke" d="
  M 604.98 688.02
  Q 595.81 687.80 587.86 683.74
  Q 587.32 683.46 587.29 684.07
  L 585.93 715.22
  Q 585.91 715.65 586.33 715.75
  Q 595.25 717.90 603.88 718.25"
/>
<path stroke="#c25845" vector-effect="non-scaling-stroke" d="
  M 604.98 688.02
  L 603.88 718.25"
/>
<path stroke="#34512d" vector-effect="non-scaling-stroke" d="
  M 314.79 783.01
  C 339.82 804.56 371.23 822.03 401.66 834.62
  C 404.23 835.69 406.30 836.65 409.22 836.30
  Q 419.66 835.04 430.19 835.78
  Q 468.15 838.45 506.18 837.89
  C 511.16 837.81 519.01 837.10 522.03 832.68
  C 527.06 825.32 518.35 817.82 510.99 817.51
  C 488.84 816.58 467.17 815.74 445.23 812.13
  C 438.64 811.04 424.54 808.26 421.69 804.17
  C 414.50 793.87 447.16 791.51 451.51 791.06
  Q 476.68 788.45 501.94 786.90
  C 507.37 786.57 515.56 786.40 517.21 780.49
  C 519.71 771.46 509.75 766.49 502.50 765.76
  C 481.52 763.63 461.13 764.65 429.25 765.31
  C 425.83 765.38 409.97 764.79 407.74 760.70
  C 397.41 741.75 473.85 737.83 481.76 737.41
  C 498.46 736.51 499.73 722.57 486.09 715.59
  C 479.98 712.46 470.17 712.23 463.06 712.58
  C 426.20 714.39 392.42 722.78 357.94 735.46
  Q 355.42 736.38 352.10 735.80
  Q 351.58 735.71 351.31 735.25
  C 349.78 732.67 353.37 725.17 354.10 722.51
  Q 354.71 720.26 352.77 721.55
  Q 335.97 732.63 328.26 749.90
  Q 321.26 765.58 314.35 781.04
  Q 313.84 782.19 314.79 783.01"
/>
<path stroke="#5d2223" vector-effect="non-scaling-stroke" d="
  M 597.65 752.24
  Q 602.39 754.34 608.02 753.25
  Q 608.54 753.16 608.68 753.66
  Q 609.95 758.37 609.83 761.75
  Q 608.78 791.39 607.06 821.06
  A 0.39 0.38 88.8 0 0 607.48 821.47
  L 615.36 820.65
  A 1.32 1.32 0.0 0 0 616.54 819.41
  L 621.27 734.30
  Q 621.30 733.88 620.88 733.96
  Q 611.82 735.78 602.48 735.51"
/>
<path stroke="#74362b" vector-effect="non-scaling-stroke" d="
  M 602.48 735.51
  Q 593.40 735.29 585.12 732.07
  Q 584.40 731.79 584.36 732.56
  L 579.95 818.31
  A 1.04 1.03 -84.6 0 0 580.84 819.39
  L 593.95 821.24
  A 0.40 0.39 5.3 0 0 594.40 820.87
  L 597.65 752.24"
/>
<path stroke="#c25845" vector-effect="non-scaling-stroke" d="
  M 602.48 735.51
  Q 603.18 742.10 602.42 748.59
  Q 602.36 749.15 601.81 749.29
  Q 598.52 750.18 597.65 752.24"
/>
<path stroke="#5d2223" vector-effect="non-scaling-stroke" d="
  M 595.21 853.69
  Q 604.68 852.43 613.99 849.73
  A 1.13 1.11 -6.4 0 0 614.80 848.73
  L 615.44 837.77
  A 0.52 0.51 86.1 0 0 614.83 837.23
  Q 604.83 839.24 595.48 839.02"
/>
<path stroke="#74362b" vector-effect="non-scaling-stroke" d="
  M 595.48 839.02
  Q 587.54 838.29 579.81 835.84
  Q 579.24 835.66 579.22 836.25
  L 578.58 856.01
  Q 578.56 856.55 579.09 856.46
  L 595.21 853.69"
/>
<path stroke="#c25845" vector-effect="non-scaling-stroke" d="
  M 595.48 839.02
  Q 594.58 846.38 595.21 853.69"
/>
<path stroke="#eca791" vector-effect="non-scaling-stroke" d="
  M 775.3293 525.2102
  A 3.60 3.60 0.0 0 0 770.5990 523.3277
  L 753.6261 530.6374
  A 3.60 3.60 0.0 0 0 751.7436 535.3678
  L 751.8307 535.5698
  A 3.60 3.60 0.0 0 0 756.5610 537.4523
  L 773.5339 530.1426
  A 3.60 3.60 0.0 0 0 775.4164 525.4122
  L 775.3293 525.2102"
/>
<path stroke="#eca791" vector-effect="non-scaling-stroke" d="
  M 698.1968 541.7486
  A 3.64 3.64 0.0 0 0 693.2338 540.3816
  L 653.4110 563.0041
  A 3.64 3.64 0.0 0 0 652.0440 567.9670
  L 652.1032 568.0714
  A 3.64 3.64 0.0 0 0 657.0662 569.4384
  L 696.8890 546.8159
  A 3.64 3.64 0.0 0 0 698.2560 541.8530
  L 698.1968 541.7486"
/>
<path stroke="#eca791" vector-effect="non-scaling-stroke" d="
  M 246.5976 495.5081
  A 3.88 3.88 0.0 0 0 246.5689 490.0210
  L 229.4102 473.0410
  A 3.88 3.88 0.0 0 0 223.9231 473.0698
  L 223.7824 473.2119
  A 3.88 3.88 0.0 0 0 223.8111 478.6990
  L 240.9698 495.6790
  A 3.88 3.88 0.0 0 0 246.4569 495.6502
  L 246.5976 495.5081"
/>
<path stroke="#878084" vector-effect="non-scaling-stroke" d="
  M 529.80 619.03
  Q 548.85 626.15 567.50 634.28
  A 1.40 1.40 0.0 0 0 569.40 633.40
  Q 570.06 631.21 567.74 629.95
  Q 549.98 620.35 530.12 616.67
  A 1.12 1.07 -55.8 0 0 529.28 616.85
  Q 528.18 617.59 529.26 618.68
  A 1.60 1.51 -10.5 0 0 529.80 619.03"
/>
</g>
<path fill="#60745c" d="
  M 512.37 106.16
  Q 506.55 107.44 500.37 106.88
  Q 505.99 105.40 512.37 106.16
  Z"
/>
<path fill="#0f0009" d="
  M 512.37 106.16
  L 546.62 106.18
  Q 558.15 107.68 569.83 107.67
  Q 571.30 107.34 573.11 107.94
  Q 579.97 109.79 587.32 109.60
  L 589.19 109.74
  C 592.56 111.41 596.61 111.18 599.17 111.64
  Q 713.94 132.23 802.58 207.70
  Q 802.86 207.94 803.34 207.61
  L 805.57 209.64
  Q 807.05 212.66 810.10 213.66
  L 815.26 218.42
  L 838.20 241.38
  L 843.25 246.95
  Q 845.13 250.38 848.27 252.32
  L 855.48 261.24
  L 883.90 300.17
  L 886.59 303.92
  Q 886.43 303.96 886.34 304.06
  A 0.28 0.27 -38.0 0 0 886.29 304.41
  Q 923.98 365.68 939.05 436.09
  C 940.92 444.84 942.51 452.81 943.71 462.39
  Q 944.64 469.72 945.93 477.23
  L 946.54 483.17
  Q 945.71 486.46 946.90 489.60
  L 947.32 497.87
  L 947.31 536.89
  L 946.91 545.96
  Q 945.72 548.73 946.36 552.14
  L 946.02 557.58
  Q 944.34 559.62 945.41 562.20
  L 945.13 563.69
  Q 941.26 591.04 935.00 617.75
  Q 934.85 618.40 935.35 618.61
  L 935.09 620.06
  Q 934.46 619.90 934.19 620.94
  Q 915.27 693.86 870.57 756.06
  Q 869.71 757.26 870.01 757.94
  L 866.18 762.60
  Q 860.91 768.10 856.89 774.51
  L 855.09 776.77
  Q 852.83 778.09 852.59 779.72
  Q 852.04 780.93 851.06 781.72
  Q 848.79 782.89 847.98 785.29
  L 844.14 789.94
  Q 840.73 791.52 839.68 794.81
  L 836.06 798.65
  L 822.72 812.01
  L 818.13 816.10
  L 801.49 830.96
  Q 798.67 832.26 796.44 835.04
  Q 796.26 835.77 796.27 835.12
  L 787.62 842.03
  L 785.54 843.83
  Q 785.05 843.62 784.81 843.80
  Q 709.64 900.99 620.32 921.59
  Q 596.89 926.99 566.64 929.81
  C 554.62 930.93 541.76 930.88 529.25 931.15
  Q 507.42 931.61 485.75 928.91
  C 406.40 920.00 329.60 887.81 267.70 838.55
  Q 267.46 838.36 266.95 838.59
  Q 266.30 838.29 265.70 837.61
  Q 265.83 837.54 265.90 837.44
  Q 265.95 837.37 265.88 837.32
  L 246.69 820.84
  Q 246.57 820.74 246.42 820.77
  Q 246.28 820.80 246.17 820.86
  L 244.52 819.33
  Q 244.83 819.10 243.97 818.28
  Q 231.75 806.56 219.82 794.32
  L 216.03 790.35
  Q 213.81 786.92 211.13 783.86
  C 155.15 719.86 124.28 640.92 114.04 558.16
  Q 113.53 557.11 113.62 555.91
  Q 114.37 551.51 112.88 547.62
  L 112.63 545.05
  Q 113.80 536.88 112.25 529.31
  L 112.12 507.03
  Q 113.69 498.93 112.60 490.58
  Q 112.54 487.85 113.23 486.93
  Q 122.72 375.06 186.88 284.00
  Q 187.02 283.79 186.88 283.58
  Q 186.81 283.48 186.73 283.37
  L 187.99 281.99
  Q 188.38 282.07 188.68 281.68
  Q 205.10 259.61 223.51 239.02
  Q 234.35 227.05 246.22 216.44
  Q 249.70 214.39 252.37 210.91
  L 253.91 209.42
  C 255.22 209.54 255.95 208.03 256.64 207.44
  C 314.40 158.58 383.47 126.07 457.97 112.49
  A 0.32 0.32 0.0 0 0 458.22 112.12
  Q 458.21 112.04 457.74 111.85
  L 460.91 111.68
  L 470.09 110.35
  Q 471.28 110.18 470.22 109.99
  Q 470.04 109.95 469.72 110.01
  L 473.21 109.59
  Q 474.62 109.91 475.51 109.79
  Q 485.80 108.48 496.37 107.21
  L 500.37 106.88
  Q 506.55 107.44 512.37 106.16
  Z
  M 182.15 697.54
  C 229.12 786.48 311.41 852.79 405.75 885.87
  Q 415.27 889.21 424.83 891.86
  C 521.57 918.72 622.75 908.35 711.54 861.04
  C 764.03 833.07 811.45 794.10 846.90 746.16
  Q 924.86 640.73 923.03 508.80
  C 922.91 500.64 922.56 491.71 921.74 483.93
  Q 906.84 342.75 805.12 244.40
  C 740.22 181.65 659.31 142.48 569.20 132.48
  C 460.05 120.37 345.31 160.13 264.60 233.99
  C 212.06 282.07 171.70 342.69 151.89 411.47
  C 124.19 507.66 135.62 609.43 182.15 697.54
  Z"
/>
<path fill="#60745c" d="
  M 546.62 106.18
  Q 558.27 105.77 569.83 107.67
  Q 558.15 107.68 546.62 106.18
  Z"
/>
<path fill="#60745c" d="
  M 496.37 107.21
  Q 485.80 108.48 475.51 109.79
  Q 474.62 109.91 473.21 109.59
  Q 484.73 107.34 496.37 107.21
  Z"
/>
<path fill="#60745c" d="
  M 573.11 107.94
  L 587.32 109.60
  Q 579.97 109.79 573.11 107.94
  Z"
/>
<path fill="#60745c" d="
  M 589.19 109.74
  C 668.09 120.94 743.08 155.65 803.34 207.61
  Q 802.86 207.94 802.58 207.70
  Q 713.94 132.23 599.17 111.64
  C 596.61 111.18 592.56 111.41 589.19 109.74
  Z"
/>
<path fill="#60745c" d="
  M 469.72 110.01
  Q 470.04 109.95 470.22 109.99
  Q 471.28 110.18 470.09 110.35
  L 460.91 111.68
  L 469.72 110.01
  Z"
/>
<path fill="#60745c" d="
  M 457.74 111.85
  Q 458.21 112.04 458.22 112.12
  A 0.32 0.32 0.0 0 1 457.97 112.49
  C 383.47 126.07 314.40 158.58 256.64 207.44
  C 255.95 208.03 255.22 209.54 253.91 209.42
  Q 261.55 202.43 269.64 196.13
  C 324.52 153.30 389.26 124.43 457.74 111.85
  Z"
/>
<path fill="#ffffff" d="
  M 405.75 885.87
  C 311.41 852.79 229.12 786.48 182.15 697.54
  C 135.62 609.43 124.19 507.66 151.89 411.47
  C 171.70 342.69 212.06 282.07 264.60 233.99
  C 345.31 160.13 460.05 120.37 569.20 132.48
  C 659.31 142.48 740.22 181.65 805.12 244.40
  Q 906.84 342.75 921.74 483.93
  C 922.56 491.71 922.91 500.64 923.03 508.80
  Q 924.86 640.73 846.90 746.16
  C 811.45 794.10 764.03 833.07 711.54 861.04
  C 622.75 908.35 521.57 918.72 424.83 891.86
  Q 415.27 889.21 405.75 885.87
  Z
  M 239.65 742.62
  C 278.13 789.36 324.47 825.50 378.99 850.81
  C 472.78 894.36 587.71 894.87 681.48 850.72
  Q 740.34 823.02 788.30 778.05
  C 814.01 753.95 835.49 725.49 853.24 695.13
  C 909.82 598.37 914.29 477.85 870.65 375.51
  C 840.30 304.31 782.93 244.28 716.92 205.09
  C 533.56 96.23 304.64 166.55 202.00 348.98
  C 174.30 398.20 160.09 458.18 159.96 513.94
  C 159.77 597.52 186.34 677.88 239.65 742.62
  Z"
/>
<path fill="#0f0009" d="
  M 378.99 850.81
  C 324.47 825.50 278.13 789.36 239.65 742.62
  C 186.34 677.88 159.77 597.52 159.96 513.94
  C 160.09 458.18 174.30 398.20 202.00 348.98
  C 304.64 166.55 533.56 96.23 716.92 205.09
  C 782.93 244.28 840.30 304.31 870.65 375.51
  C 914.29 477.85 909.82 598.37 853.24 695.13
  C 835.49 725.49 814.01 753.95 788.30 778.05
  Q 740.34 823.02 681.48 850.72
  C 587.71 894.87 472.78 894.36 378.99 850.81
  Z
  M 184.28 500.86
  Q 183.91 503.43 183.86 506.26
  Q 183.38 534.54 186.46 562.72
  Q 186.52 563.27 186.97 562.95
  C 215.49 543.15 244.79 524.45 273.22 504.59
  A 1.64 1.64 0.0 0 0 273.76 502.53
  C 260.88 475.79 260.55 444.14 268.16 415.93
  Q 269.15 412.27 272.80 399.76
  Q 281.05 375.08 295.80 351.06
  C 308.17 330.93 325.07 312.61 346.27 302.15
  Q 346.73 301.92 346.91 301.44
  C 364.87 251.45 404.09 209.04 459.25 202.76
  C 485.52 199.77 513.00 206.52 532.55 224.62
  A 1.67 1.66 -40.1 0 0 534.59 224.79
  C 565.43 204.67 612.05 196.17 642.22 222.79
  C 657.12 235.93 663.77 251.07 668.04 270.18
  Q 668.15 270.69 668.64 270.84
  C 688.28 277.08 706.76 289.12 718.34 306.31
  C 723.59 314.11 729.97 321.95 726.39 330.83
  Q 726.21 331.30 726.46 331.73
  C 732.10 341.33 729.12 351.65 721.73 359.20
  A 1.05 1.03 -26.2 0 0 721.43 360.06
  C 722.54 370.72 704.50 383.70 696.75 390.72
  L 683.11 401.27
  A 0.43 0.43 0.0 0 0 683.07 401.92
  C 698.14 416.54 708.01 433.93 710.45 455.11
  A 1.71 1.70 -77.5 0 0 711.23 456.34
  Q 717.60 460.34 718.85 467.23
  C 721.20 480.27 708.71 493.45 697.43 498.03
  Q 696.95 498.22 697.10 498.71
  Q 701.89 514.43 688.89 524.22
  C 681.58 529.72 673.34 531.24 664.68 533.28
  A 1.55 1.46 -74.9 0 0 663.87 533.78
  C 652.09 547.89 634.32 557.43 617.50 564.02
  A 0.60 0.59 -31.4 0 0 617.27 564.97
  L 644.61 595.97
  Q 644.88 596.27 645.24 596.09
  Q 683.51 576.43 724.98 564.95
  C 734.13 562.41 747.21 563.15 748.52 574.95
  A 0.67 0.67 0.0 0 0 749.11 575.54
  Q 754.53 576.15 760.67 578.35
  Q 777.34 584.31 787.71 588.56
  Q 795.74 591.86 795.26 600.48
  Q 794.75 609.67 792.36 639.82
  Q 792.17 642.28 792.27 643.95
  Q 792.30 644.51 792.81 644.72
  C 813.38 653.35 823.59 670.74 827.35 692.06
  A 0.25 0.25 0.0 0 0 827.81 692.14
  Q 848.38 657.32 860.94 618.75
  C 890.72 518.95 876.55 411.46 815.10 326.42
  C 752.72 240.07 656.63 185.10 549.99 178.22
  C 502.86 175.18 450.92 182.92 406.93 200.31
  Q 297.45 243.60 233.62 342.36
  C 203.19 389.46 186.68 444.56 184.28 500.86
  Z
  M 501.41 420.41
  A 2.05 2.05 0.0 0 1 501.17 416.44
  C 519.52 410.69 535.64 404.09 551.19 392.53
  Q 552.03 391.90 551.00 392.07
  C 527.96 395.96 504.75 396.93 481.75 392.46
  C 462.87 388.79 449.23 381.24 436.61 366.67
  Q 434.05 363.72 433.59 360.79
  A 0.42 0.42 0.0 0 1 434.29 360.42
  C 450.98 375.86 470.10 384.15 492.29 386.84
  C 517.25 389.87 541.96 387.76 565.89 379.80
  C 570.68 378.20 585.17 372.23 580.12 364.84
  Q 579.82 364.40 579.35 364.64
  Q 538.97 384.95 494.60 379.33
  C 472.95 376.59 457.40 367.13 440.94 353.56
  C 438.73 351.74 435.59 349.82 432.38 349.28
  C 425.26 348.10 409.35 347.77 405.83 340.11
  C 402.88 333.69 408.75 329.30 414.51 328.28
  C 422.44 326.88 431.62 327.66 439.43 324.17
  C 451.13 318.94 464.30 310.32 473.27 306.14
  Q 510.95 288.57 552.76 298.54
  Q 562.55 300.88 571.37 303.55
  A 1.04 1.04 0.0 0 0 572.27 301.70
  C 559.44 292.65 547.22 289.93 531.08 288.45
  Q 496.48 285.28 465.51 302.33
  Q 450.56 310.55 445.69 312.95
  C 442.54 314.50 428.47 319.81 426.08 316.42
  A 0.57 0.57 0.0 0 1 426.33 315.57
  C 443.14 308.66 458.05 297.25 474.37 290.54
  C 497.39 281.06 524.67 278.47 549.01 285.21
  Q 549.55 285.36 549.16 284.96
  Q 547.07 282.82 544.57 281.17
  C 521.14 265.71 495.80 257.72 467.50 261.80
  C 449.66 264.38 436.30 271.60 421.03 278.09
  A 0.85 0.84 -33.2 0 1 420.09 277.90
  C 416.51 274.24 428.47 266.97 431.03 265.57
  C 466.70 246.03 509.72 248.95 543.60 270.19
  A 0.31 0.30 -83.4 0 0 544.05 269.83
  C 537.86 251.68 525.81 235.30 508.53 226.50
  C 481.23 212.59 447.22 215.68 421.25 231.09
  C 387.88 250.88 365.21 287.05 355.68 324.25
  C 352.25 337.66 351.61 349.00 345.29 358.84
  A 0.71 0.70 -38.9 0 1 344.04 358.71
  C 339.68 347.11 341.08 333.67 344.17 322.01
  A 0.46 0.46 0.0 0 0 343.46 321.52
  C 312.28 343.34 291.94 386.08 283.45 422.19
  C 276.89 450.11 276.97 485.50 299.06 507.19
  Q 313.65 521.52 332.41 529.72
  C 365.96 544.39 402.33 553.61 438.57 558.33
  C 471.22 562.58 504.34 564.99 535.31 563.86
  C 568.60 562.65 608.08 556.17 637.85 537.55
  Q 640.40 535.95 642.43 534.00
  A 0.51 0.50 -67.6 0 0 642.07 533.13
  Q 572.13 535.39 503.36 521.72
  Q 484.92 518.05 466.52 514.19
  C 456.57 512.10 446.91 510.66 438.07 511.31
  C 423.07 512.41 406.14 513.49 397.25 498.89
  C 391.29 489.12 392.45 476.98 398.91 467.64
  C 414.30 445.36 441.42 443.94 465.51 449.99
  Q 488.53 455.78 511.52 461.67
  Q 562.93 474.84 615.99 475.42
  C 642.58 475.72 670.84 472.20 695.05 460.56
  Q 696.69 459.77 696.48 458.27
  Q 691.96 426.41 665.81 407.75
  C 664.87 407.08 663.96 407.12 662.92 407.40
  Q 642.53 412.86 621.43 410.62
  Q 620.78 410.56 621.25 411.01
  L 626.42 415.99
  A 1.97 1.97 0.0 0 1 625.86 419.21
  Q 624.29 419.93 622.17 418.91
  Q 606.04 411.13 591.33 400.92
  C 590.11 400.07 589.09 398.60 589.81 397.21
  A 1.34 1.33 -67.9 0 1 591.37 396.55
  C 599.24 398.82 607.71 401.50 615.37 402.55
  C 643.62 406.44 670.79 399.47 692.61 380.87
  C 698.76 375.62 707.11 369.41 711.59 362.73
  A 0.40 0.40 0.0 0 0 711.08 362.14
  C 672.28 380.38 630.70 380.85 589.86 369.72
  A 0.63 0.62 17.9 0 0 589.11 370.10
  C 588.10 372.94 587.24 375.51 585.19 377.69
  C 579.41 383.81 572.03 386.24 564.67 389.26
  Q 564.20 389.45 563.92 389.86
  Q 559.98 395.54 554.41 399.64
  Q 532.53 415.77 505.68 420.35
  Q 503.26 420.76 501.41 420.41
  Z
  M 558.88 271.30
  C 589.69 264.02 622.15 262.95 653.06 270.24
  Q 653.46 270.34 653.36 269.94
  C 650.24 257.77 644.44 245.28 635.42 236.69
  C 610.20 212.67 569.83 221.09 542.90 237.33
  A 0.67 0.67 0.0 0 0 542.71 238.30
  Q 553.84 253.03 558.30 270.95
  A 0.49 0.48 -13.3 0 0 558.88 271.30
  Z
  M 565.81 286.01
  C 571.42 291.99 582.47 294.36 581.74 304.39
  A 0.85 0.84 -75.0 0 0 582.21 305.21
  L 588.55 308.43
  A 3.49 3.48 49.2 0 0 591.23 308.63
  Q 600.17 305.72 609.48 302.71
  Q 655.76 287.77 700.38 303.21
  Q 703.44 304.26 700.89 302.28
  Q 690.72 294.34 678.97 291.05
  C 668.52 288.13 652.86 288.41 641.56 288.83
  C 625.67 289.41 611.54 293.93 595.55 300.49
  Q 595.20 300.63 595.23 300.26
  Q 595.25 299.88 595.54 299.71
  Q 632.07 278.55 673.26 287.68
  Q 676.25 288.34 673.55 286.91
  Q 654.35 276.69 630.83 274.48
  Q 595.42 271.14 560.75 279.11
  Q 560.23 279.23 560.55 279.66
  Q 563.03 283.05 565.81 286.01
  Z
  M 411.07 334.74
  C 412.75 339.78 424.07 340.40 428.02 340.55
  C 447.47 341.26 463.67 324.77 481.71 317.54
  C 512.06 305.37 541.83 307.20 572.99 317.23
  Q 573.67 317.45 574.20 316.98
  L 577.75 313.79
  Q 578.34 313.27 577.60 312.99
  Q 557.26 305.64 535.76 303.27
  Q 498.32 299.13 466.17 318.18
  C 453.31 325.80 439.17 334.36 424.65 330.76
  C 418.92 329.34 414.84 329.16 411.23 333.80
  A 1.02 1.01 -35.6 0 0 411.07 334.74
  Z
  M 582.26 320.22
  Q 588.58 322.10 592.27 327.51
  Q 592.56 327.94 592.98 327.64
  C 613.46 313.10 641.98 307.66 666.63 309.19
  C 683.12 310.20 699.50 314.74 714.65 321.42
  Q 716.08 322.05 715.98 320.49
  Q 715.88 319.03 713.99 317.77
  C 688.90 301.04 650.18 300.26 621.97 306.95
  C 610.75 309.61 596.14 315.03 583.25 319.00
  Q 582.47 319.24 582.11 319.79
  A 0.29 0.28 -64.7 0 0 582.26 320.22
  Z
  M 445.17 345.88
  Q 461.54 362.48 483.74 369.46
  A 0.44 0.44 0.0 0 0 484.24 368.80
  C 465.86 341.82 494.21 310.70 522.08 322.57
  C 542.61 331.32 546.36 354.29 532.23 370.79
  A 0.26 0.26 0.0 0 0 532.47 371.22
  Q 552.97 368.09 571.87 359.74
  C 576.54 357.68 579.67 356.32 582.11 352.59
  C 586.58 345.74 592.09 332.66 580.93 328.31
  C 548.63 315.71 516.20 310.44 484.16 324.65
  C 475.56 328.46 464.92 335.12 455.41 340.40
  C 452.25 342.16 448.59 343.57 445.30 345.13
  Q 444.71 345.41 445.17 345.88
  Z
  M 587.62 359.05
  C 598.13 365.37 614.92 367.25 626.99 368.02
  Q 627.86 368.08 627.34 367.38
  C 617.07 353.61 619.77 332.48 634.53 323.66
  C 662.39 307.03 695.38 337.24 675.19 365.15
  A 0.41 0.41 0.0 0 0 675.62 365.79
  C 684.44 363.53 692.47 361.04 701.43 357.54
  C 706.79 355.44 712.35 352.70 716.66 353.41
  Q 717.14 353.49 717.48 353.14
  C 723.78 346.67 725.17 335.32 716.07 330.41
  Q 708.46 326.29 693.53 321.66
  C 660.79 311.50 622.91 315.37 594.74 335.55
  Q 594.30 335.87 594.27 336.42
  Q 593.63 348.07 587.34 357.85
  Q 586.87 358.59 587.62 359.05
  Z
  M 647.11 337.71
  A 6.40 6.40 0.0 0 0 640.71 331.31
  A 6.40 6.40 0.0 0 0 634.31 337.71
  A 6.40 6.40 0.0 0 0 640.71 344.11
  A 6.40 6.40 0.0 0 0 647.11 337.71
  Z
  M 502.1992 345.9231
  A 6.96 6.33 53.2 0 0 503.0986 336.5582
  A 6.96 6.33 53.2 0 0 493.8608 334.7769
  A 6.96 6.33 53.2 0 0 492.9614 344.1418
  A 6.96 6.33 53.2 0 0 502.1992 345.9231
  Z
  M 659.3883 356.5091
  A 4.54 4.18 82.3 0 0 662.9223 351.4499
  A 4.54 4.18 82.3 0 0 658.1717 347.5109
  A 4.54 4.18 82.3 0 0 654.6377 352.5701
  A 4.54 4.18 82.3 0 0 659.3883 356.5091
  Z
  M 522.08 354.71
  A 4.64 4.64 0.0 0 0 517.44 350.07
  A 4.64 4.64 0.0 0 0 512.80 354.71
  A 4.64 4.64 0.0 0 0 517.44 359.35
  A 4.64 4.64 0.0 0 0 522.08 354.71
  Z
  M 426.10 481.74
  C 438.10 469.07 459.12 475.48 474.63 479.05
  C 533.37 492.59 592.11 502.34 652.29 496.77
  C 662.18 495.86 672.74 493.87 682.93 492.10
  Q 691.66 490.59 695.65 488.48
  C 700.50 485.92 711.92 476.72 708.59 470.00
  C 707.01 466.81 703.95 466.79 700.80 468.00
  C 692.23 471.29 683.42 474.77 674.78 476.95
  C 624.02 489.72 566.44 484.54 516.00 471.76
  Q 499.62 467.62 466.32 458.65
  C 447.73 453.64 421.15 451.63 408.55 470.17
  C 401.44 480.63 400.99 494.03 413.24 500.67
  C 418.00 503.25 423.93 503.30 429.31 502.87
  C 445.61 501.54 459.08 503.38 476.27 507.11
  C 511.85 514.83 539.39 519.71 574.34 522.80
  C 604.31 525.45 634.73 525.08 664.68 522.45
  Q 672.21 521.79 678.68 518.30
  C 684.78 515.00 690.83 506.12 682.85 500.90
  A 1.15 1.11 -33.0 0 0 682.01 500.74
  C 608.02 515.79 532.49 500.86 462.68 484.86
  Q 447.58 481.40 431.50 483.25
  Q 428.87 483.55 426.24 482.43
  Q 425.68 482.19 426.10 481.74
  Z
  M 314.38 650.67
  L 354.24 653.46
  Q 354.72 653.49 354.73 653.01
  Q 354.90 629.29 354.86 605.56
  C 354.85 597.04 360.07 593.72 366.44 589.67
  A 0.53 0.52 54.8 0 0 366.57 588.90
  Q 354.08 572.85 343.60 555.42
  C 343.24 554.81 342.59 554.06 341.92 553.76
  C 323.78 545.86 307.16 536.77 292.70 523.04
  Q 291.97 522.34 292.13 523.34
  L 313.02 649.43
  A 1.48 1.48 0.0 0 0 314.38 650.67
  Z
  M 286.95 719.15
  A 1.00 1.00 0.0 0 1 288.92 719.14
  Q 293.23 742.31 294.86 765.81
  A 1.43 1.40 20.2 0 0 295.30 766.73
  L 301.33 772.40
  A 0.41 0.41 0.0 0 0 302.00 772.21
  C 310.88 742.19 323.09 714.17 354.33 701.82
  Q 354.75 701.65 354.75 701.21
  L 354.75 672.25
  Q 354.75 671.64 354.14 671.58
  Q 330.51 669.57 306.88 667.71
  C 302.30 667.35 298.57 666.24 297.75 661.50
  Q 286.40 595.51 276.81 529.28
  Q 276.66 528.26 275.80 528.84
  Q 234.49 556.46 192.79 584.54
  C 189.90 586.48 191.19 587.59 191.76 590.10
  Q 209.50 669.01 261.49 730.78
  Q 271.41 742.58 282.50 754.77
  A 0.43 0.42 -65.5 0 0 283.24 754.49
  Q 283.79 736.68 286.95 719.15
  Z
  M 408.34 572.34
  Q 388.44 567.99 369.03 561.56
  Q 368.29 561.31 368.71 561.97
  C 374.02 570.41 380.88 578.10 386.93 586.02
  Q 387.26 586.45 387.74 586.20
  Q 397.81 580.88 408.73 577.58
  A 1.40 1.40 0.0 0 0 409.51 576.99
  Q 410.65 575.19 410.20 573.04
  Q 410.10 572.59 409.64 572.55
  Q 408.94 572.47 408.34 572.34
  Z
  M 572.75 611.74
  Q 587.87 619.73 600.98 630.73
  Q 601.43 631.11 601.83 630.68
  L 612.87 618.86
  A 0.51 0.51 0.0 0 0 612.68 618.03
  Q 607.57 616.18 602.66 613.80
  C 599.69 612.37 599.66 609.06 603.32 608.65
  Q 612.87 607.57 622.33 609.31
  A 0.92 0.86 -52.3 0 0 622.93 609.21
  L 627.34 606.76
  A 0.57 0.56 -29.4 0 0 627.56 605.98
  Q 626.12 603.53 623.75 600.49
  Q 608.11 580.40 600.37 570.68
  Q 600.11 570.35 599.70 570.46
  L 585.54 574.39
  A 1.10 1.09 -89.5 0 0 584.77 575.15
  Q 579.34 593.31 572.46 610.98
  A 0.62 0.61 24.7 0 0 572.75 611.74
  Z
  M 588.72 636.16
  Q 583.67 631.51 576.96 627.80
  C 532.06 602.95 479.12 587.30 430.58 578.60
  C 426.94 577.95 425.12 579.61 423.84 582.73
  Q 423.57 583.39 424.27 583.54
  Q 450.68 589.58 476.85 596.82
  Q 488.52 600.05 495.20 603.26
  Q 497.13 604.19 495.85 606.14
  Q 495.61 606.51 495.16 606.50
  C 493.96 606.48 492.61 606.58 491.45 606.32
  Q 455.17 598.10 418.70 590.73
  Q 416.80 590.35 414.90 589.75
  A 1.03 1.02 -51.4 0 0 414.06 589.85
  Q 409.54 592.56 404.45 593.89
  Q 403.70 594.08 404.45 594.26
  Q 484.93 613.45 564.20 637.16
  Q 575.76 640.61 587.08 644.36
  A 0.27 0.26 -13.9 0 0 587.35 643.92
  C 585.21 641.92 579.87 638.90 582.45 635.50
  A 0.84 0.83 28.4 0 1 583.40 635.22
  Q 585.74 636.08 587.82 637.42
  Q 595.38 642.28 588.72 636.16
  Z
  M 531.60 593.41
  Q 544.25 597.22 555.86 603.49
  Q 556.50 603.84 556.78 603.17
  L 566.56 579.44
  Q 566.89 578.63 566.05 578.87
  Q 548.13 584.05 531.52 592.53
  A 0.48 0.48 0.0 0 0 531.60 593.41
  Z
  M 495.54 581.09
  L 517.78 588.27
  A 0.72 0.69 40.3 0 0 518.28 588.24
  L 532.62 581.81
  A 0.29 0.29 0.0 0 0 532.51 581.26
  C 530.24 581.22 527.33 581.63 525.67 581.59
  Q 510.74 581.24 495.60 580.79
  Q 494.49 580.75 495.54 581.09
  Z
  M 734.19 582.43
  C 728.79 582.71 723.41 579.59 718.50 581.18
  C 688.88 590.72 658.21 601.99 631.93 618.91
  C 623.20 624.53 614.64 631.54 609.83 640.31
  A 0.37 0.36 84.9 0 0 610.38 640.77
  Q 625.69 628.34 643.44 619.94
  C 670.62 607.08 703.45 594.98 733.88 583.44
  Q 734.09 583.36 734.22 583.20
  Q 734.38 583.00 734.45 582.85
  A 0.28 0.28 0.0 0 0 734.19 582.43
  Z
  M 756.25 593.57
  Q 750.19 592.26 744.46 589.81
  A 1.31 1.31 0.0 0 0 743.56 589.76
  C 724.14 595.55 705.01 602.91 686.10 610.17
  Q 663.45 618.87 641.66 629.51
  C 633.88 633.31 623.48 638.77 618.89 645.75
  Q 618.56 646.26 619.13 646.04
  L 756.32 594.55
  Q 757.94 593.94 756.25 593.57
  Z
  M 378.55 709.99
  Q 379.43 710.09 380.28 709.83
  Q 399.77 703.90 419.91 700.64
  Q 420.42 700.56 420.46 700.05
  Q 421.05 693.64 426.01 688.01
  Q 434.72 678.12 443.47 668.30
  Q 443.72 668.01 443.49 667.71
  Q 439.57 662.62 433.82 665.09
  Q 433.33 665.29 432.81 665.21
  C 419.37 663.16 422.02 642.55 435.85 644.94
  Q 441.18 645.86 443.06 651.84
  Q 443.20 652.31 443.63 652.58
  L 451.70 657.64
  Q 452.07 657.88 452.34 657.53
  Q 455.33 653.58 457.73 649.24
  C 460.98 643.36 468.99 643.70 472.75 648.74
  C 477.77 655.48 471.92 667.76 462.60 664.67
  A 0.49 0.49 0.0 0 0 462.18 665.54
  Q 475.63 674.35 488.19 683.81
  Q 494.06 688.22 497.51 692.91
  Q 497.85 693.37 498.41 693.35
  L 503.31 693.20
  A 0.73 0.71 12.3 0 0 503.91 692.83
  Q 507.45 686.38 514.23 688.27
  C 525.54 691.43 523.21 708.06 511.07 708.20
  C 507.63 708.24 503.08 703.72 501.09 704.66
  A 0.41 0.41 0.0 0 0 500.98 705.32
  C 511.06 715.16 517.02 726.67 508.38 739.86
  Q 506.79 742.29 504.98 744.84
  Q 504.66 745.31 505.19 745.51
  Q 510.78 747.71 513.78 749.21
  C 525.28 754.99 535.24 767.24 533.78 780.51
  C 532.83 789.16 528.63 793.91 522.52 799.73
  Q 522.14 800.10 522.58 800.40
  C 535.97 809.54 546.37 826.31 535.55 841.53
  C 528.98 850.76 516.02 855.97 504.72 858.36
  A 0.29 0.29 0.0 0 0 504.76 858.94
  Q 535.18 861.08 565.53 857.94
  A 0.62 0.62 0.0 0 0 566.08 857.36
  C 569.68 795.82 572.71 734.26 575.71 672.69
  Q 575.88 669.35 575.68 666.01
  L 576.49 656.91
  Q 576.53 656.40 576.04 656.26
  C 512.57 637.56 456.11 622.81 385.53 604.13
  C 382.30 603.27 374.06 600.66 370.47 601.96
  A 0.75 0.74 -10.1 0 0 369.98 602.66
  L 370.60 712.73
  Q 370.61 713.21 371.04 713.00
  Q 374.12 711.50 377.51 710.80
  Q 378.19 710.66 378.55 709.99
  Z
  M 637.96 665.43
  L 626.97 845.36
  A 0.58 0.58 0.0 0 0 627.73 845.95
  Q 672.83 831.44 712.84 805.76
  C 715.30 804.18 719.11 802.10 721.98 799.79
  Q 722.72 799.19 721.77 799.28
  C 703.36 801.07 669.79 803.31 660.03 782.21
  C 655.46 772.34 658.54 761.31 666.38 753.93
  A 1.32 1.31 -46.5 0 0 666.33 751.97
  C 649.95 738.16 652.08 713.13 668.59 700.58
  Q 670.27 699.31 675.86 695.66
  Q 676.32 695.35 676.02 694.89
  C 663.63 675.21 676.00 651.94 696.46 644.93
  Q 703.55 642.50 706.01 642.00
  C 730.38 637.04 753.34 635.28 777.39 639.51
  Q 777.94 639.61 777.98 639.04
  L 779.82 613.76
  Q 781.27 608.51 780.91 602.99
  Q 780.87 602.36 780.25 602.49
  Q 777.80 603.02 773.94 604.44
  C 718.88 624.67 673.88 640.59 637.77 655.38
  Q 637.28 655.59 637.31 656.12
  L 637.96 665.43
  Z
  M 690.94 683.31
  Q 694.39 686.15 698.26 685.34
  Q 716.33 681.57 734.74 680.73
  C 740.47 680.47 775.10 680.76 773.70 690.73
  A 1.51 1.46 -21.0 0 1 773.32 691.54
  C 769.01 696.27 759.30 697.81 753.20 698.89
  Q 726.60 703.56 700.02 708.33
  C 689.07 710.30 671.45 712.60 671.20 725.59
  C 671.07 732.16 675.36 736.21 682.00 734.77
  Q 708.96 728.93 734.92 727.18
  C 741.85 726.71 766.30 725.34 771.16 730.05
  C 784.58 743.06 692.23 759.90 686.61 761.17
  C 683.75 761.81 679.29 763.22 677.66 764.87
  C 670.53 772.10 676.68 780.86 685.51 779.80
  Q 705.69 777.38 734.82 771.84
  C 748.74 769.19 764.42 767.36 774.24 758.24
  Q 797.56 736.60 814.14 711.52
  C 815.55 709.40 817.15 707.76 816.15 705.09
  C 812.49 695.31 808.71 682.25 803.65 674.43
  C 793.47 658.73 767.59 653.25 749.69 654.12
  Q 726.54 655.25 704.07 660.81
  Q 697.08 662.53 691.86 667.54
  C 687.43 671.78 685.46 678.81 690.94 683.31
  Z
  M 588.99 660.71
  Q 588.44 660.26 588.23 660.94
  C 582.31 680.05 610.63 677.93 619.84 675.16
  C 625.78 673.38 626.40 666.85 625.49 661.64
  Q 625.38 660.97 624.83 661.36
  C 615.82 667.72 597.97 668.08 588.99 660.71
  Z
  M 434.87 698.42
  C 450.20 696.72 465.36 695.22 480.79 695.55
  A 0.31 0.31 0.0 0 0 480.98 694.99
  L 454.84 675.36
  A 0.49 0.48 38.5 0 0 454.19 675.43
  L 434.48 697.67
  A 0.45 0.45 0.0 0 0 434.87 698.42
  Z
  M 603.88 718.25
  L 621.03 717.18
  A 1.51 1.50 -0.0 0 0 622.45 715.77
  L 624.38 685.83
  Q 624.43 685.18 623.80 685.37
  Q 614.38 688.28 604.98 688.02
  Q 595.81 687.80 587.86 683.74
  Q 587.32 683.46 587.29 684.07
  L 585.93 715.22
  Q 585.91 715.65 586.33 715.75
  Q 595.25 717.90 603.88 718.25
  Z
  M 314.79 783.01
  C 339.82 804.56 371.23 822.03 401.66 834.62
  C 404.23 835.69 406.30 836.65 409.22 836.30
  Q 419.66 835.04 430.19 835.78
  Q 468.15 838.45 506.18 837.89
  C 511.16 837.81 519.01 837.10 522.03 832.68
  C 527.06 825.32 518.35 817.82 510.99 817.51
  C 488.84 816.58 467.17 815.74 445.23 812.13
  C 438.64 811.04 424.54 808.26 421.69 804.17
  C 414.50 793.87 447.16 791.51 451.51 791.06
  Q 476.68 788.45 501.94 786.90
  C 507.37 786.57 515.56 786.40 517.21 780.49
  C 519.71 771.46 509.75 766.49 502.50 765.76
  C 481.52 763.63 461.13 764.65 429.25 765.31
  C 425.83 765.38 409.97 764.79 407.74 760.70
  C 397.41 741.75 473.85 737.83 481.76 737.41
  C 498.46 736.51 499.73 722.57 486.09 715.59
  C 479.98 712.46 470.17 712.23 463.06 712.58
  C 426.20 714.39 392.42 722.78 357.94 735.46
  Q 355.42 736.38 352.10 735.80
  Q 351.58 735.71 351.31 735.25
  C 349.78 732.67 353.37 725.17 354.10 722.51
  Q 354.71 720.26 352.77 721.55
  Q 335.97 732.63 328.26 749.90
  Q 321.26 765.58 314.35 781.04
  Q 313.84 782.19 314.79 783.01
  Z
  M 597.65 752.24
  Q 602.39 754.34 608.02 753.25
  Q 608.54 753.16 608.68 753.66
  Q 609.95 758.37 609.83 761.75
  Q 608.78 791.39 607.06 821.06
  A 0.39 0.38 88.8 0 0 607.48 821.47
  L 615.36 820.65
  A 1.32 1.32 0.0 0 0 616.54 819.41
  L 621.27 734.30
  Q 621.30 733.88 620.88 733.96
  Q 611.82 735.78 602.48 735.51
  Q 593.40 735.29 585.12 732.07
  Q 584.40 731.79 584.36 732.56
  L 579.95 818.31
  A 1.04 1.03 -84.6 0 0 580.84 819.39
  L 593.95 821.24
  A 0.40 0.39 5.3 0 0 594.40 820.87
  L 597.65 752.24
  Z
  M 595.21 853.69
  Q 604.68 852.43 613.99 849.73
  A 1.13 1.11 -6.4 0 0 614.80 848.73
  L 615.44 837.77
  A 0.52 0.51 86.1 0 0 614.83 837.23
  Q 604.83 839.24 595.48 839.02
  Q 587.54 838.29 579.81 835.84
  Q 579.24 835.66 579.22 836.25
  L 578.58 856.01
  Q 578.56 856.55 579.09 856.46
  L 595.21 853.69
  Z"
/>
<path fill="#ff6844" d="
  M 860.94 618.75
  Q 860.67 618.54 860.21 618.47
  Q 859.74 618.40 859.64 617.92
  Q 854.07 591.43 845.43 569.82
  C 815.47 494.94 764.63 435.02 696.75 390.72
  C 704.50 383.70 722.54 370.72 721.43 360.06
  A 1.05 1.03 -26.2 0 1 721.73 359.20
  C 729.12 351.65 732.10 341.33 726.46 331.73
  Q 726.21 331.30 726.39 330.83
  C 729.97 321.95 723.59 314.11 718.34 306.31
  C 706.76 289.12 688.28 277.08 668.64 270.84
  Q 668.15 270.69 668.04 270.18
  C 663.77 251.07 657.12 235.93 642.22 222.79
  C 612.05 196.17 565.43 204.67 534.59 224.79
  A 1.67 1.66 -40.1 0 1 532.55 224.62
  C 513.00 206.52 485.52 199.77 459.25 202.76
  C 404.09 209.04 364.87 251.45 346.91 301.44
  Q 346.73 301.92 346.27 302.15
  C 325.07 312.61 308.17 330.93 295.80 351.06
  Q 281.05 375.08 272.80 399.76
  C 241.85 424.48 214.94 452.83 193.41 486.16
  Q 189.20 492.69 185.74 499.64
  A 1.04 1.04 0.0 0 1 185.11 500.17
  Q 184.52 500.36 184.28 500.86
  C 186.68 444.56 203.19 389.46 233.62 342.36
  Q 297.45 243.60 406.93 200.31
  C 450.92 182.92 502.86 175.18 549.99 178.22
  C 656.63 185.10 752.72 240.07 815.10 326.42
  C 876.55 411.46 890.72 518.95 860.94 618.75
  Z"
/>
<path fill="#60745c" d="
  M 805.57 209.64
  L 810.10 213.66
  Q 807.05 212.66 805.57 209.64
  Z"
/>
<path fill="#60745c" d="
  M 252.37 210.91
  Q 249.70 214.39 246.22 216.44
  L 252.37 210.91
  Z"
/>
<path fill="#59a251" d="
  M 501.41 420.41
  Q 503.26 420.76 505.68 420.35
  Q 532.53 415.77 554.41 399.64
  Q 559.98 395.54 563.92 389.86
  Q 564.20 389.45 564.67 389.26
  C 572.03 386.24 579.41 383.81 585.19 377.69
  C 587.24 375.51 588.10 372.94 589.11 370.10
  A 0.63 0.62 17.9 0 1 589.86 369.72
  C 630.70 380.85 672.28 380.38 711.08 362.14
  A 0.40 0.40 0.0 0 1 711.59 362.73
  C 707.11 369.41 698.76 375.62 692.61 380.87
  C 670.79 399.47 643.62 406.44 615.37 402.55
  C 607.71 401.50 599.24 398.82 591.37 396.55
  A 1.34 1.33 -67.9 0 0 589.81 397.21
  C 589.09 398.60 590.11 400.07 591.33 400.92
  Q 606.04 411.13 622.17 418.91
  Q 624.29 419.93 625.86 419.21
  A 1.97 1.97 0.0 0 0 626.42 415.99
  L 621.25 411.01
  Q 620.78 410.56 621.43 410.62
  Q 642.53 412.86 662.92 407.40
  C 663.96 407.12 664.87 407.08 665.81 407.75
  Q 691.96 426.41 696.48 458.27
  Q 696.69 459.77 695.05 460.56
  C 670.84 472.20 642.58 475.72 615.99 475.42
  Q 562.93 474.84 511.52 461.67
  Q 488.53 455.78 465.51 449.99
  C 441.42 443.94 414.30 445.36 398.91 467.64
  C 392.45 476.98 391.29 489.12 397.25 498.89
  C 406.14 513.49 423.07 512.41 438.07 511.31
  C 446.91 510.66 456.57 512.10 466.52 514.19
  Q 484.92 518.05 503.36 521.72
  Q 572.13 535.39 642.07 533.13
  A 0.51 0.50 -67.6 0 1 642.43 534.00
  Q 640.40 535.95 637.85 537.55
  C 608.08 556.17 568.60 562.65 535.31 563.86
  C 504.34 564.99 471.22 562.58 438.57 558.33
  C 402.33 553.61 365.96 544.39 332.41 529.72
  Q 313.65 521.52 299.06 507.19
  C 276.97 485.50 276.89 450.11 283.45 422.19
  C 291.94 386.08 312.28 343.34 343.46 321.52
  A 0.46 0.46 0.0 0 1 344.17 322.01
  C 341.08 333.67 339.68 347.11 344.04 358.71
  A 0.71 0.70 -38.9 0 0 345.29 358.84
  C 351.61 349.00 352.25 337.66 355.68 324.25
  C 365.21 287.05 387.88 250.88 421.25 231.09
  C 447.22 215.68 481.23 212.59 508.53 226.50
  C 525.81 235.30 537.86 251.68 544.05 269.83
  A 0.31 0.30 -83.4 0 1 543.60 270.19
  C 509.72 248.95 466.70 246.03 431.03 265.57
  C 428.47 266.97 416.51 274.24 420.09 277.90
  A 0.85 0.84 -33.2 0 0 421.03 278.09
  C 436.30 271.60 449.66 264.38 467.50 261.80
  C 495.80 257.72 521.14 265.71 544.57 281.17
  Q 547.07 282.82 549.16 284.96
  Q 549.55 285.36 549.01 285.21
  C 524.67 278.47 497.39 281.06 474.37 290.54
  C 458.05 297.25 443.14 308.66 426.33 315.57
  A 0.57 0.57 0.0 0 0 426.08 316.42
  C 428.47 319.81 442.54 314.50 445.69 312.95
  Q 450.56 310.55 465.51 302.33
  Q 496.48 285.28 531.08 288.45
  C 547.22 289.93 559.44 292.65 572.27 301.70
  A 1.04 1.04 0.0 0 1 571.37 303.55
  Q 562.55 300.88 552.76 298.54
  Q 510.95 288.57 473.27 306.14
  C 464.30 310.32 451.13 318.94 439.43 324.17
  C 431.62 327.66 422.44 326.88 414.51 328.28
  C 408.75 329.30 402.88 333.69 405.83 340.11
  C 409.35 347.77 425.26 348.10 432.38 349.28
  C 435.59 349.82 438.73 351.74 440.94 353.56
  C 457.40 367.13 472.95 376.59 494.60 379.33
  Q 538.97 384.95 579.35 364.64
  Q 579.82 364.40 580.12 364.84
  C 585.17 372.23 570.68 378.20 565.89 379.80
  C 541.96 387.76 517.25 389.87 492.29 386.84
  C 470.10 384.15 450.98 375.86 434.29 360.42
  A 0.42 0.42 0.0 0 0 433.59 360.79
  Q 434.05 363.72 436.61 366.67
  C 449.23 381.24 462.87 388.79 481.75 392.46
  C 504.75 396.93 527.96 395.96 551.00 392.07
  Q 552.03 391.90 551.19 392.53
  C 535.64 404.09 519.52 410.69 501.17 416.44
  A 2.05 2.05 0.0 0 0 501.41 420.41
  Z"
/>
<path fill="#60745c" d="
  M 815.26 218.42
  Q 827.42 229.21 838.20 241.38
  L 815.26 218.42
  Z"
/>
<path fill="#59a251" d="
  M 653.06 270.24
  C 622.15 262.95 589.69 264.02 558.88 271.30
  A 0.49 0.48 -13.3 0 1 558.30 270.95
  Q 553.84 253.03 542.71 238.30
  A 0.67 0.67 0.0 0 1 542.90 237.33
  C 569.83 221.09 610.20 212.67 635.42 236.69
  C 644.44 245.28 650.24 257.77 653.36 269.94
  Q 653.46 270.34 653.06 270.24
  Z"
/>
<path fill="#60745c" d="
  M 223.51 239.02
  Q 205.10 259.61 188.68 281.68
  Q 188.38 282.07 187.99 281.99
  Q 204.18 259.09 223.51 239.02
  Z"
/>
<path fill="#60745c" d="
  M 843.25 246.95
  L 848.27 252.32
  Q 845.13 250.38 843.25 246.95
  Z"
/>
<path fill="#60745c" d="
  M 855.48 261.24
  Q 871.08 279.73 883.90 300.17
  L 855.48 261.24
  Z"
/>
<path fill="#59a251" d="
  M 581.74 304.39
  C 582.47 294.36 571.42 291.99 565.81 286.01
  Q 563.03 283.05 560.55 279.66
  Q 560.23 279.23 560.75 279.11
  Q 595.42 271.14 630.83 274.48
  Q 654.35 276.69 673.55 286.91
  Q 676.25 288.34 673.26 287.68
  Q 632.07 278.55 595.54 299.71
  Q 595.25 299.88 595.23 300.26
  Q 595.20 300.63 595.55 300.49
  C 611.54 293.93 625.67 289.41 641.56 288.83
  C 652.86 288.41 668.52 288.13 678.97 291.05
  Q 690.72 294.34 700.89 302.28
  Q 703.44 304.26 700.38 303.21
  Q 655.76 287.77 609.48 302.71
  Q 600.17 305.72 591.23 308.63
  A 3.49 3.48 49.2 0 1 588.55 308.43
  L 582.21 305.21
  A 0.85 0.84 -75.0 0 1 581.74 304.39
  Z"
/>
<path fill="#60745c" d="
  M 186.73 283.37
  Q 186.81 283.48 186.88 283.58
  Q 187.02 283.79 186.88 284.00
  Q 122.72 375.06 113.23 486.93
  Q 113.44 472.07 116.33 455.52
  Q 121.50 425.89 129.43 399.81
  Q 148.59 336.86 186.73 283.37
  Z"
/>
<path fill="#59a251" d="
  M 428.02 340.55
  C 424.07 340.40 412.75 339.78 411.07 334.74
  A 1.02 1.01 -35.6 0 1 411.23 333.80
  C 414.84 329.16 418.92 329.34 424.65 330.76
  C 439.17 334.36 453.31 325.80 466.17 318.18
  Q 498.32 299.13 535.76 303.27
  Q 557.26 305.64 577.60 312.99
  Q 578.34 313.27 577.75 313.79
  L 574.20 316.98
  Q 573.67 317.45 572.99 317.23
  C 541.83 307.20 512.06 305.37 481.71 317.54
  C 463.67 324.77 447.47 341.26 428.02 340.55
  Z"
/>
<path fill="#59a251" d="
  M 582.26 320.22
  A 0.29 0.28 -64.7 0 1 582.11 319.79
  Q 582.47 319.24 583.25 319.00
  C 596.14 315.03 610.75 309.61 621.97 306.95
  C 650.18 300.26 688.90 301.04 713.99 317.77
  Q 715.88 319.03 715.98 320.49
  Q 716.08 322.05 714.65 321.42
  C 699.50 314.74 683.12 310.20 666.63 309.19
  C 641.98 307.66 613.46 313.10 592.98 327.64
  Q 592.56 327.94 592.27 327.51
  Q 588.58 322.10 582.26 320.22
  Z"
/>
<path fill="#60745c" d="
  M 886.59 303.92
  C 911.62 343.89 929.02 387.99 939.29 433.99
  Q 944.02 455.16 945.93 477.23
  Q 944.64 469.72 943.71 462.39
  C 942.51 452.81 940.92 444.84 939.05 436.09
  Q 923.98 365.68 886.29 304.41
  A 0.28 0.27 -38.0 0 1 886.34 304.06
  Q 886.43 303.96 886.59 303.92
  Z"
/>
<path fill="#ffffff" d="
  M 445.17 345.88
  Q 444.71 345.41 445.30 345.13
  C 448.59 343.57 452.25 342.16 455.41 340.40
  C 464.92 335.12 475.56 328.46 484.16 324.65
  C 516.20 310.44 548.63 315.71 580.93 328.31
  C 592.09 332.66 586.58 345.74 582.11 352.59
  C 579.67 356.32 576.54 357.68 571.87 359.74
  Q 552.97 368.09 532.47 371.22
  A 0.26 0.26 0.0 0 1 532.23 370.79
  C 546.36 354.29 542.61 331.32 522.08 322.57
  C 494.21 310.70 465.86 341.82 484.24 368.80
  A 0.44 0.44 0.0 0 1 483.74 369.46
  Q 461.54 362.48 445.17 345.88
  Z"
/>
<path fill="#ffffff" d="
  M 587.62 359.05
  Q 586.87 358.59 587.34 357.85
  Q 593.63 348.07 594.27 336.42
  Q 594.30 335.87 594.74 335.55
  C 622.91 315.37 660.79 311.50 693.53 321.66
  Q 708.46 326.29 716.07 330.41
  C 725.17 335.32 723.78 346.67 717.48 353.14
  Q 717.14 353.49 716.66 353.41
  C 712.35 352.70 706.79 355.44 701.43 357.54
  C 692.47 361.04 684.44 363.53 675.62 365.79
  A 0.41 0.41 0.0 0 1 675.19 365.15
  C 695.38 337.24 662.39 307.03 634.53 323.66
  C 619.77 332.48 617.07 353.61 627.34 367.38
  Q 627.86 368.08 626.99 368.02
  C 614.92 367.25 598.13 365.37 587.62 359.05
  Z"
/>
<circle fill="#ffffff" cx="640.71" cy="337.71" r="6.40"/>
<ellipse fill="#ffffff" cx="0.00" cy="0.00" transform="translate(498.03,340.35) rotate(53.2)" rx="6.96" ry="6.33"/>
<ellipse fill="#ffffff" cx="0.00" cy="0.00" transform="translate(658.78,352.01) rotate(82.3)" rx="4.54" ry="4.18"/>
<circle fill="#ffffff" cx="517.44" cy="354.71" r="4.64"/>
<path fill="#fee2d4" d="
  M 696.75 390.72
  C 764.63 435.02 815.47 494.94 845.43 569.82
  Q 854.07 591.43 859.64 617.92
  Q 859.74 618.40 860.21 618.47
  Q 860.67 618.54 860.94 618.75
  Q 848.38 657.32 827.81 692.14
  A 0.25 0.25 0.0 0 1 827.35 692.06
  C 823.59 670.74 813.38 653.35 792.81 644.72
  Q 792.30 644.51 792.27 643.95
  Q 792.17 642.28 792.36 639.82
  Q 794.75 609.67 795.26 600.48
  Q 795.74 591.86 787.71 588.56
  Q 777.34 584.31 760.67 578.35
  Q 754.53 576.15 749.11 575.54
  A 0.67 0.67 0.0 0 1 748.52 574.95
  C 747.21 563.15 734.13 562.41 724.98 564.95
  Q 683.51 576.43 645.24 596.09
  Q 644.88 596.27 644.61 595.97
  L 617.27 564.97
  A 0.60 0.59 -31.4 0 1 617.50 564.02
  C 634.32 557.43 652.09 547.89 663.87 533.78
  A 1.55 1.46 -74.9 0 1 664.68 533.28
  C 673.34 531.24 681.58 529.72 688.89 524.22
  Q 701.89 514.43 697.10 498.71
  Q 696.95 498.22 697.43 498.03
  C 708.71 493.45 721.20 480.27 718.85 467.23
  Q 717.60 460.34 711.23 456.34
  A 1.71 1.70 -77.5 0 1 710.45 455.11
  C 708.01 433.93 698.14 416.54 683.07 401.92
  A 0.43 0.43 0.0 0 1 683.11 401.27
  L 696.75 390.72
  Z
  M 775.3293 525.2102
  A 3.60 3.60 0.0 0 0 770.5990 523.3277
  L 753.6261 530.6374
  A 3.60 3.60 0.0 0 0 751.7436 535.3678
  L 751.8307 535.5698
  A 3.60 3.60 0.0 0 0 756.5610 537.4523
  L 773.5339 530.1426
  A 3.60 3.60 0.0 0 0 775.4164 525.4122
  L 775.3293 525.2102
  Z
  M 698.1968 541.7486
  A 3.64 3.64 0.0 0 0 693.2338 540.3816
  L 653.4110 563.0041
  A 3.64 3.64 0.0 0 0 652.0440 567.9670
  L 652.1032 568.0714
  A 3.64 3.64 0.0 0 0 657.0662 569.4384
  L 696.8890 546.8159
  A 3.64 3.64 0.0 0 0 698.2560 541.8530
  L 698.1968 541.7486
  Z"
/>
<path fill="#fee2d4" d="
  M 272.80 399.76
  Q 269.15 412.27 268.16 415.93
  C 260.55 444.14 260.88 475.79 273.76 502.53
  A 1.64 1.64 0.0 0 1 273.22 504.59
  C 244.79 524.45 215.49 543.15 186.97 562.95
  Q 186.52 563.27 186.46 562.72
  Q 183.38 534.54 183.86 506.26
  Q 183.91 503.43 184.28 500.86
  Q 184.52 500.36 185.11 500.17
  A 1.04 1.04 0.0 0 0 185.74 499.64
  Q 189.20 492.69 193.41 486.16
  C 214.94 452.83 241.85 424.48 272.80 399.76
  Z
  M 246.5976 495.5081
  A 3.88 3.88 0.0 0 0 246.5689 490.0210
  L 229.4102 473.0410
  A 3.88 3.88 0.0 0 0 223.9231 473.0698
  L 223.7824 473.2119
  A 3.88 3.88 0.0 0 0 223.8111 478.6990
  L 240.9698 495.6790
  A 3.88 3.88 0.0 0 0 246.4569 495.6502
  L 246.5976 495.5081
  Z"
/>
<path fill="#d96c4d" d="
  M 426.24 482.43
  Q 428.87 483.55 431.50 483.25
  Q 447.58 481.40 462.68 484.86
  C 532.49 500.86 608.02 515.79 682.01 500.74
  A 1.15 1.11 -33.0 0 1 682.85 500.90
  C 690.83 506.12 684.78 515.00 678.68 518.30
  Q 672.21 521.79 664.68 522.45
  C 634.73 525.08 604.31 525.45 574.34 522.80
  C 539.39 519.71 511.85 514.83 476.27 507.11
  C 459.08 503.38 445.61 501.54 429.31 502.87
  C 423.93 503.30 418.00 503.25 413.24 500.67
  C 400.99 494.03 401.44 480.63 408.55 470.17
  C 421.15 451.63 447.73 453.64 466.32 458.65
  Q 499.62 467.62 516.00 471.76
  C 566.44 484.54 624.02 489.72 674.78 476.95
  C 683.42 474.77 692.23 471.29 700.80 468.00
  C 703.95 466.79 707.01 466.81 708.59 470.00
  C 711.92 476.72 700.50 485.92 695.65 488.48
  Q 691.66 490.59 682.93 492.10
  C 672.74 493.87 662.18 495.86 652.29 496.77
  C 592.11 502.34 533.37 492.59 474.63 479.05
  C 459.12 475.48 438.10 469.07 426.10 481.74
  Q 425.68 482.19 426.24 482.43
  Z"
/>
<rect fill="#d96c4d" x="-15.95" y="-3.98" transform="translate(235.19,484.36) rotate(44.7)" width="31.90" height="7.96" rx="3.88"/>
<path fill="#60745c" d="
  M 946.54 483.17
  Q 947.37 486.10 946.90 489.60
  Q 945.71 486.46 946.54 483.17
  Z"
/>
<path fill="#60745c" d="
  M 112.60 490.58
  Q 113.69 498.93 112.12 507.03
  Q 111.48 498.74 112.60 490.58
  Z"
/>
<path fill="#60745c" d="
  M 947.32 497.87
  Q 948.98 517.40 947.31 536.89
  L 947.32 497.87
  Z"
/>
<path fill="#ffffff" d="
  M 314.38 650.67
  A 1.48 1.48 0.0 0 1 313.02 649.43
  L 292.13 523.34
  Q 291.97 522.34 292.70 523.04
  C 307.16 536.77 323.78 545.86 341.92 553.76
  C 342.59 554.06 343.24 554.81 343.60 555.42
  Q 354.08 572.85 366.57 588.90
  A 0.53 0.52 54.8 0 1 366.44 589.67
  C 360.07 593.72 354.85 597.04 354.86 605.56
  Q 354.90 629.29 354.73 653.01
  Q 354.72 653.49 354.24 653.46
  L 314.38 650.67
  Z"
/>
<rect fill="#d96c4d" x="-12.84" y="-3.71" transform="translate(763.58,530.39) rotate(-23.3)" width="25.68" height="7.42" rx="3.60"/>
<path fill="#ffffff" d="
  M 286.95 719.15
  Q 283.79 736.68 283.24 754.49
  A 0.43 0.42 -65.5 0 1 282.50 754.77
  Q 271.41 742.58 261.49 730.78
  Q 209.50 669.01 191.76 590.10
  C 191.19 587.59 189.90 586.48 192.79 584.54
  Q 234.49 556.46 275.80 528.84
  Q 276.66 528.26 276.81 529.28
  Q 286.40 595.51 297.75 661.50
  C 298.57 666.24 302.30 667.35 306.88 667.71
  Q 330.51 669.57 354.14 671.58
  Q 354.75 671.64 354.75 672.25
  L 354.75 701.21
  Q 354.75 701.65 354.33 701.82
  C 323.09 714.17 310.88 742.19 302.00 772.21
  A 0.41 0.41 0.0 0 1 301.33 772.40
  L 295.30 766.73
  A 1.43 1.40 20.2 0 1 294.86 765.81
  Q 293.23 742.31 288.92 719.14
  A 1.00 1.00 0.0 0 0 286.95 719.15
  Z"
/>
<path fill="#60745c" d="
  M 112.25 529.31
  Q 113.80 536.88 112.63 545.05
  Q 111.49 537.39 112.25 529.31
  Z"
/>
<rect fill="#d96c4d" x="-26.54" y="-3.70" transform="translate(675.15,554.91) rotate(-29.6)" width="53.08" height="7.40" rx="3.64"/>
<path fill="#60745c" d="
  M 946.91 545.96
  Q 947.36 549.13 946.36 552.14
  Q 945.72 548.73 946.91 545.96
  Z"
/>
<path fill="#60745c" d="
  M 112.88 547.62
  Q 114.37 551.51 113.62 555.91
  L 112.88 547.62
  Z"
/>
<path fill="#60745c" d="
  M 946.02 557.58
  L 945.41 562.20
  Q 944.34 559.62 946.02 557.58
  Z"
/>
<path fill="#60745c" d="
  M 114.04 558.16
  C 124.28 640.92 155.15 719.86 211.13 783.86
  Q 213.81 786.92 216.03 790.35
  Q 188.63 759.83 167.80 724.70
  Q 164.16 718.56 155.54 701.51
  Q 132.97 656.85 122.27 607.94
  Q 120.82 601.35 119.26 594.78
  C 118.95 593.44 119.31 591.88 118.27 590.51
  Q 118.00 590.16 118.00 589.72
  L 118.00 587.20
  Q 118.00 586.65 117.76 586.14
  C 116.75 584.05 117.06 581.82 116.63 579.93
  Q 114.17 569.17 114.04 558.16
  Z"
/>
<path fill="#60745c" d="
  M 408.34 572.34
  Q 408.94 572.47 409.64 572.55
  Q 410.10 572.59 410.20 573.04
  Q 410.65 575.19 409.51 576.99
  A 1.40 1.40 0.0 0 1 408.73 577.58
  Q 397.81 580.88 387.74 586.20
  Q 387.26 586.45 386.93 586.02
  C 380.88 578.10 374.02 570.41 368.71 561.97
  Q 368.29 561.31 369.03 561.56
  Q 388.44 567.99 408.34 572.34
  Z"
/>
<path fill="#60745c" d="
  M 945.13 563.69
  Q 942.36 591.47 935.35 618.61
  Q 934.85 618.40 935.00 617.75
  Q 941.26 591.04 945.13 563.69
  Z"
/>
<path fill="#c5c7d9" d="
  M 572.75 611.74
  A 0.62 0.61 24.7 0 1 572.46 610.98
  Q 579.34 593.31 584.77 575.15
  A 1.10 1.09 -89.5 0 1 585.54 574.39
  L 599.70 570.46
  Q 600.11 570.35 600.37 570.68
  Q 608.11 580.40 623.75 600.49
  Q 626.12 603.53 627.56 605.98
  A 0.57 0.56 -29.4 0 1 627.34 606.76
  L 622.93 609.21
  A 0.92 0.86 -52.3 0 1 622.33 609.31
  Q 612.87 607.57 603.32 608.65
  C 599.66 609.06 599.69 612.37 602.66 613.80
  Q 607.57 616.18 612.68 618.03
  A 0.51 0.51 0.0 0 1 612.87 618.86
  L 601.83 630.68
  Q 601.43 631.11 600.98 630.73
  Q 587.87 619.73 572.75 611.74
  Z"
/>
<path fill="#ffffff" d="
  M 588.72 636.16
  Q 595.38 642.28 587.82 637.42
  Q 585.74 636.08 583.40 635.22
  A 0.84 0.83 28.4 0 0 582.45 635.50
  C 579.87 638.90 585.21 641.92 587.35 643.92
  A 0.27 0.26 -13.9 0 1 587.08 644.36
  Q 575.76 640.61 564.20 637.16
  Q 484.93 613.45 404.45 594.26
  Q 403.70 594.08 404.45 593.89
  Q 409.54 592.56 414.06 589.85
  A 1.03 1.02 -51.4 0 1 414.90 589.75
  Q 416.80 590.35 418.70 590.73
  Q 455.17 598.10 491.45 606.32
  C 492.61 606.58 493.96 606.48 495.16 606.50
  Q 495.61 606.51 495.85 606.14
  Q 497.13 604.19 495.20 603.26
  Q 488.52 600.05 476.85 596.82
  Q 450.68 589.58 424.27 583.54
  Q 423.57 583.39 423.84 582.73
  C 425.12 579.61 426.94 577.95 430.58 578.60
  C 479.12 587.30 532.06 602.95 576.96 627.80
  Q 583.67 631.51 588.72 636.16
  Z
  M 529.80 619.03
  Q 548.85 626.15 567.50 634.28
  A 1.40 1.40 0.0 0 0 569.40 633.40
  Q 570.06 631.21 567.74 629.95
  Q 549.98 620.35 530.12 616.67
  A 1.12 1.07 -55.8 0 0 529.28 616.85
  Q 528.18 617.59 529.26 618.68
  A 1.60 1.51 -10.5 0 0 529.80 619.03
  Z"
/>
<path fill="#60745c" d="
  M 531.60 593.41
  A 0.48 0.48 0.0 0 1 531.52 592.53
  Q 548.13 584.05 566.05 578.87
  Q 566.89 578.63 566.56 579.44
  L 556.78 603.17
  Q 556.50 603.84 555.86 603.49
  Q 544.25 597.22 531.60 593.41
  Z"
/>
<path fill="#ab433c" d="
  M 495.60 580.79
  Q 510.74 581.24 525.67 581.59
  C 527.33 581.63 530.24 581.22 532.51 581.26
  A 0.29 0.29 0.0 0 1 532.62 581.81
  L 518.28 588.24
  A 0.72 0.69 40.3 0 1 517.78 588.27
  L 495.54 581.09
  Q 494.49 580.75 495.60 580.79
  Z"
/>
<path fill="#ffffff" d="
  M 734.19 582.43
  A 0.28 0.28 0.0 0 1 734.45 582.85
  Q 734.38 583.00 734.22 583.20
  Q 734.09 583.36 733.88 583.44
  C 703.45 594.98 670.62 607.08 643.44 619.94
  Q 625.69 628.34 610.38 640.77
  A 0.37 0.36 84.9 0 1 609.83 640.31
  C 614.64 631.54 623.20 624.53 631.93 618.91
  C 658.21 601.99 688.88 590.72 718.50 581.18
  C 723.41 579.59 728.79 582.71 734.19 582.43
  Z"
/>
<path fill="#ffffff" d="
  M 756.32 594.55
  L 619.13 646.04
  Q 618.56 646.26 618.89 645.75
  C 623.48 638.77 633.88 633.31 641.66 629.51
  Q 663.45 618.87 686.10 610.17
  C 705.01 602.91 724.14 595.55 743.56 589.76
  A 1.31 1.31 0.0 0 1 744.46 589.81
  Q 750.19 592.26 756.25 593.57
  Q 757.94 593.94 756.32 594.55
  Z"
/>
<path fill="#ffffff" d="
  M 575.68 666.01
  C 513.32 649.61 450.71 632.30 388.36 617.72
  Q 383.90 616.67 380.00 616.78
  Q 378.91 616.81 378.91 617.90
  L 378.55 709.99
  Q 378.19 710.66 377.51 710.80
  Q 374.12 711.50 371.04 713.00
  Q 370.61 713.21 370.60 712.73
  L 369.98 602.66
  A 0.75 0.74 -10.1 0 1 370.47 601.96
  C 374.06 600.66 382.30 603.27 385.53 604.13
  C 456.11 622.81 512.57 637.56 576.04 656.26
  Q 576.53 656.40 576.49 656.91
  L 575.68 666.01
  Z"
/>
<path fill="#ffffff" d="
  M 779.82 613.76
  Q 775.33 614.71 769.94 616.69
  Q 692.50 644.99 637.96 665.43
  L 637.31 656.12
  Q 637.28 655.59 637.77 655.38
  C 673.88 640.59 718.88 624.67 773.94 604.44
  Q 777.80 603.02 780.25 602.49
  Q 780.87 602.36 780.91 602.99
  Q 781.27 608.51 779.82 613.76
  Z"
/>
<path fill="#ab433c" d="
  M 779.82 613.76
  L 777.98 639.04
  Q 777.94 639.61 777.39 639.51
  C 753.34 635.28 730.38 637.04 706.01 642.00
  Q 703.55 642.50 696.46 644.93
  C 676.00 651.94 663.63 675.21 676.02 694.89
  Q 676.32 695.35 675.86 695.66
  Q 670.27 699.31 668.59 700.58
  C 652.08 713.13 649.95 738.16 666.33 751.97
  A 1.32 1.31 -46.5 0 1 666.38 753.93
  C 658.54 761.31 655.46 772.34 660.03 782.21
  C 669.79 803.31 703.36 801.07 721.77 799.28
  Q 722.72 799.19 721.98 799.79
  C 719.11 802.10 715.30 804.18 712.84 805.76
  Q 672.83 831.44 627.73 845.95
  A 0.58 0.58 0.0 0 1 626.97 845.36
  L 637.96 665.43
  Q 692.50 644.99 769.94 616.69
  Q 775.33 614.71 779.82 613.76
  Z"
/>
<path fill="#d96c4d" d="
  M 575.68 666.01
  Q 575.88 669.35 575.71 672.69
  C 572.71 734.26 569.68 795.82 566.08 857.36
  A 0.62 0.62 0.0 0 1 565.53 857.94
  Q 535.18 861.08 504.76 858.94
  A 0.29 0.29 0.0 0 1 504.72 858.36
  C 516.02 855.97 528.98 850.76 535.55 841.53
  C 546.37 826.31 535.97 809.54 522.58 800.40
  Q 522.14 800.10 522.52 799.73
  C 528.63 793.91 532.83 789.16 533.78 780.51
  C 535.24 767.24 525.28 754.99 513.78 749.21
  Q 510.78 747.71 505.19 745.51
  Q 504.66 745.31 504.98 744.84
  Q 506.79 742.29 508.38 739.86
  C 517.02 726.67 511.06 715.16 500.98 705.32
  A 0.41 0.41 0.0 0 1 501.09 704.66
  C 503.08 703.72 507.63 708.24 511.07 708.20
  C 523.21 708.06 525.54 691.43 514.23 688.27
  Q 507.45 686.38 503.91 692.83
  A 0.73 0.71 12.3 0 1 503.31 693.20
  L 498.41 693.35
  Q 497.85 693.37 497.51 692.91
  Q 494.06 688.22 488.19 683.81
  Q 475.63 674.35 462.18 665.54
  A 0.49 0.49 0.0 0 1 462.60 664.67
  C 471.92 667.76 477.77 655.48 472.75 648.74
  C 468.99 643.70 460.98 643.36 457.73 649.24
  Q 455.33 653.58 452.34 657.53
  Q 452.07 657.88 451.70 657.64
  L 443.63 652.58
  Q 443.20 652.31 443.06 651.84
  Q 441.18 645.86 435.85 644.94
  C 422.02 642.55 419.37 663.16 432.81 665.21
  Q 433.33 665.29 433.82 665.09
  Q 439.57 662.62 443.49 667.71
  Q 443.72 668.01 443.47 668.30
  Q 434.72 678.12 426.01 688.01
  Q 421.05 693.64 420.46 700.05
  Q 420.42 700.56 419.91 700.64
  Q 399.77 703.90 380.28 709.83
  Q 379.43 710.09 378.55 709.99
  L 378.91 617.90
  Q 378.91 616.81 380.00 616.78
  Q 383.90 616.67 388.36 617.72
  C 450.71 632.30 513.32 649.61 575.68 666.01
  Z"
/>
<path fill="#0f0009" d="
  M 529.80 619.03
  A 1.60 1.51 -10.5 0 1 529.26 618.68
  Q 528.18 617.59 529.28 616.85
  A 1.12 1.07 -55.8 0 1 530.12 616.67
  Q 549.98 620.35 567.74 629.95
  Q 570.06 631.21 569.40 633.40
  A 1.40 1.40 0.0 0 1 567.50 634.28
  Q 548.85 626.15 529.80 619.03
  Z"
/>
<path fill="#60745c" d="
  M 935.09 620.06
  Q 915.39 695.05 870.01 757.94
  Q 869.71 757.26 870.57 756.06
  Q 915.27 693.86 934.19 620.94
  Q 934.46 619.90 935.09 620.06
  Z"
/>
<path fill="#59a251" d="
  M 690.94 683.31
  C 685.46 678.81 687.43 671.78 691.86 667.54
  Q 697.08 662.53 704.07 660.81
  Q 726.54 655.25 749.69 654.12
  C 767.59 653.25 793.47 658.73 803.65 674.43
  C 808.71 682.25 812.49 695.31 816.15 705.09
  C 817.15 707.76 815.55 709.40 814.14 711.52
  Q 797.56 736.60 774.24 758.24
  C 764.42 767.36 748.74 769.19 734.82 771.84
  Q 705.69 777.38 685.51 779.80
  C 676.68 780.86 670.53 772.10 677.66 764.87
  C 679.29 763.22 683.75 761.81 686.61 761.17
  C 692.23 759.90 784.58 743.06 771.16 730.05
  C 766.30 725.34 741.85 726.71 734.92 727.18
  Q 708.96 728.93 682.00 734.77
  C 675.36 736.21 671.07 732.16 671.20 725.59
  C 671.45 712.60 689.07 710.30 700.02 708.33
  Q 726.60 703.56 753.20 698.89
  C 759.30 697.81 769.01 696.27 773.32 691.54
  A 1.51 1.46 -21.0 0 0 773.70 690.73
  C 775.10 680.76 740.47 680.47 734.74 680.73
  Q 716.33 681.57 698.26 685.34
  Q 694.39 686.15 690.94 683.31
  Z"
/>
<path fill="#ffffff" d="
  M 588.99 660.71
  C 597.97 668.08 615.82 667.72 624.83 661.36
  Q 625.38 660.97 625.49 661.64
  C 626.40 666.85 625.78 673.38 619.84 675.16
  C 610.63 677.93 582.31 680.05 588.23 660.94
  Q 588.44 660.26 588.99 660.71
  Z"
/>
<path fill="#d96c4d" d="
  M 434.87 698.42
  A 0.45 0.45 0.0 0 1 434.48 697.67
  L 454.19 675.43
  A 0.49 0.48 38.5 0 1 454.84 675.36
  L 480.98 694.99
  A 0.31 0.31 0.0 0 1 480.79 695.55
  C 465.36 695.22 450.20 696.72 434.87 698.42
  Z"
/>
<path fill="#d96c4d" d="
  M 604.98 688.02
  L 603.88 718.25
  Q 595.25 717.90 586.33 715.75
  Q 585.91 715.65 585.93 715.22
  L 587.29 684.07
  Q 587.32 683.46 587.86 683.74
  Q 595.81 687.80 604.98 688.02
  Z"
/>
<path fill="#ab433c" d="
  M 603.88 718.25
  L 604.98 688.02
  Q 614.38 688.28 623.80 685.37
  Q 624.43 685.18 624.38 685.83
  L 622.45 715.77
  A 1.51 1.50 -0.0 0 1 621.03 717.18
  L 603.88 718.25
  Z"
/>
<path fill="#59a251" d="
  M 314.79 783.01
  Q 313.84 782.19 314.35 781.04
  Q 321.26 765.58 328.26 749.90
  Q 335.97 732.63 352.77 721.55
  Q 354.71 720.26 354.10 722.51
  C 353.37 725.17 349.78 732.67 351.31 735.25
  Q 351.58 735.71 352.10 735.80
  Q 355.42 736.38 357.94 735.46
  C 392.42 722.78 426.20 714.39 463.06 712.58
  C 470.17 712.23 479.98 712.46 486.09 715.59
  C 499.73 722.57 498.46 736.51 481.76 737.41
  C 473.85 737.83 397.41 741.75 407.74 760.70
  C 409.97 764.79 425.83 765.38 429.25 765.31
  C 461.13 764.65 481.52 763.63 502.50 765.76
  C 509.75 766.49 519.71 771.46 517.21 780.49
  C 515.56 786.40 507.37 786.57 501.94 786.90
  Q 476.68 788.45 451.51 791.06
  C 447.16 791.51 414.50 793.87 421.69 804.17
  C 424.54 808.26 438.64 811.04 445.23 812.13
  C 467.17 815.74 488.84 816.58 510.99 817.51
  C 518.35 817.82 527.06 825.32 522.03 832.68
  C 519.01 837.10 511.16 837.81 506.18 837.89
  Q 468.15 838.45 430.19 835.78
  Q 419.66 835.04 409.22 836.30
  C 406.30 836.65 404.23 835.69 401.66 834.62
  C 371.23 822.03 339.82 804.56 314.79 783.01
  Z"
/>
<path fill="#d96c4d" d="
  M 602.48 735.51
  Q 603.18 742.10 602.42 748.59
  Q 602.36 749.15 601.81 749.29
  Q 598.52 750.18 597.65 752.24
  L 594.40 820.87
  A 0.40 0.39 5.3 0 1 593.95 821.24
  L 580.84 819.39
  A 1.04 1.03 -84.6 0 1 579.95 818.31
  L 584.36 732.56
  Q 584.40 731.79 585.12 732.07
  Q 593.40 735.29 602.48 735.51
  Z"
/>
<path fill="#ab433c" d="
  M 597.65 752.24
  Q 598.52 750.18 601.81 749.29
  Q 602.36 749.15 602.42 748.59
  Q 603.18 742.10 602.48 735.51
  Q 611.82 735.78 620.88 733.96
  Q 621.30 733.88 621.27 734.30
  L 616.54 819.41
  A 1.32 1.32 0.0 0 1 615.36 820.65
  L 607.48 821.47
  A 0.39 0.38 88.8 0 1 607.06 821.06
  Q 608.78 791.39 609.83 761.75
  Q 609.95 758.37 608.68 753.66
  Q 608.54 753.16 608.02 753.25
  Q 602.39 754.34 597.65 752.24
  Z"
/>
<path fill="#60745c" d="
  M 866.18 762.60
  L 856.89 774.51
  Q 860.91 768.10 866.18 762.60
  Z"
/>
<path fill="#60745c" d="
  M 855.09 776.77
  Q 854.31 778.41 852.59 779.72
  Q 852.83 778.09 855.09 776.77
  Z"
/>
<path fill="#60745c" d="
  M 851.06 781.72
  L 847.98 785.29
  Q 848.79 782.89 851.06 781.72
  Z"
/>
<path fill="#60745c" d="
  M 844.14 789.94
  L 839.68 794.81
  Q 840.73 791.52 844.14 789.94
  Z"
/>
<path fill="#60745c" d="
  M 244.52 819.33
  Q 231.29 807.65 219.82 794.32
  Q 231.75 806.56 243.97 818.28
  Q 244.83 819.10 244.52 819.33
  Z"
/>
<path fill="#60745c" d="
  M 836.06 798.65
  Q 830.17 806.09 822.72 812.01
  L 836.06 798.65
  Z"
/>
<path fill="#60745c" d="
  M 818.13 816.10
  Q 810.48 824.26 801.49 830.96
  L 818.13 816.10
  Z"
/>
<path fill="#60745c" d="
  M 246.17 820.86
  Q 246.28 820.80 246.42 820.77
  Q 246.57 820.74 246.69 820.84
  L 265.88 837.32
  Q 265.95 837.37 265.90 837.44
  Q 265.83 837.54 265.70 837.61
  L 246.17 820.86
  Z"
/>
<path fill="#60745c" d="
  M 801.49 830.96
  L 796.44 835.04
  Q 798.67 832.26 801.49 830.96
  Z"
/>
<path fill="#60745c" d="
  M 796.27 835.12
  Q 792.31 839.19 787.62 842.03
  L 796.27 835.12
  Z"
/>
<path fill="#d96c4d" d="
  M 595.48 839.02
  Q 594.58 846.38 595.21 853.69
  L 579.09 856.46
  Q 578.56 856.55 578.58 856.01
  L 579.22 836.25
  Q 579.24 835.66 579.81 835.84
  Q 587.54 838.29 595.48 839.02
  Z"
/>
<path fill="#ab433c" d="
  M 595.21 853.69
  Q 594.58 846.38 595.48 839.02
  Q 604.83 839.24 614.83 837.23
  A 0.52 0.51 86.1 0 1 615.44 837.77
  L 614.80 848.73
  A 1.13 1.11 -6.4 0 1 613.99 849.73
  Q 604.68 852.43 595.21 853.69
  Z"
/>
<path fill="#60745c" d="
  M 266.95 838.59
  Q 267.46 838.36 267.70 838.55
  C 329.60 887.81 406.40 920.00 485.75 928.91
  Q 485.14 928.96 485.24 929.56
  Q 434.09 923.77 389.70 907.25
  C 346.16 891.04 302.94 868.20 266.95 838.59
  Z"
/>
<path fill="#60745c" d="
  M 785.54 843.83
  Q 783.66 845.51 780.27 848.00
  C 721.78 891.19 655.64 918.70 583.07 928.60
  C 580.40 928.96 577.88 928.74 575.70 929.41
  C 572.56 930.36 569.46 929.80 566.28 930.34
  C 560.13 931.38 552.72 931.93 546.51 931.96
  Q 530.26 932.04 514.00 931.99
  C 510.38 931.98 506.21 931.34 502.01 931.18
  Q 496.45 930.98 485.24 929.56
  Q 485.14 928.96 485.75 928.91
  Q 507.42 931.61 529.25 931.15
  C 541.76 930.88 554.62 930.93 566.64 929.81
  Q 596.89 926.99 620.32 921.59
  Q 709.64 900.99 784.81 843.80
  Q 785.05 843.62 785.54 843.83
  Z"
/>
</svg>
